<?xml version="1.0" encoding="utf-8"?>
<!-- Generator: Adobe Illustrator 26.2.1, SVG Export Plug-In . SVG Version: 6.00 Build 0)  -->
<svg version="1.1" id="Capa_1" xmlns="http://www.w3.org/2000/svg" xmlns:xlink="http://www.w3.org/1999/xlink" x="0px" y="0px"
	 viewBox="0 0 995.8 190.1" style="enable-background:new 0 0 995.8 190.1;" xml:space="preserve">
<style type="text/css">
	.st0{fill:#86BE5E;}
	.st1{fill:#B6E1F9;}
	.st2{fill:#005DB8;}
	.st3{fill:#1D1D1B;}
	.st4{fill:#BCBCBC;}
	.st5{fill:#AB0817;}
	.st6{fill:#3E4951;}
	.st7{fill:#3D4750;}
	.st8{fill:#3D4851;}
	.st9{fill:#9D8D68;}
</style>
<g>
	<g>
		<path class="st0" d="M198.9,99.8c-1.3-2.5-2.9-5-4.5-7.3c-1.7-2.5-3.7-4.8-6-6.8c-1.2-1.1-2.5-2.1-3.8-3c-1.4-1-2.9-1.8-4.5-2.5
			c-3.3-1.5-6.9-2.4-10.6-2.6c-1.1-0.1-2.3,0-3.4,0.1c-1.8-4.9-3.9-9.6-6.3-14.2c-2.6-5.1-5.4-9.9-8.2-14.4
			c-1.5-2.3-2.9-4.5-4.3-6.7l-2.2-3.3l-1.1-1.6c-0.4-0.5-0.8-1.2-1.2-1.8c-1-1.5-2-2.9-3.2-4.3c-1.5-1.8-3.2-3.5-5.1-4.9
			c-2.3-1.7-4.8-2.9-7.5-3.6c-1.3-0.3-2.6-0.5-3.9-0.6h-0.6h-0.6c-0.4,0-0.8,0-1.3,0c-2.4,0.1-4.8,0.7-6.9,1.7
			c-1.2,0.6-2.4,1.2-3.4,2c-1.7,1.3-3.3,2.7-4.7,4.3c-1.1,1.3-2.2,2.6-3.2,4c-0.9,1.3-1.7,2.5-2.4,3.7c-2.9,4.5-5.9,9-8.8,13.5
			c-3,4.5-6,8.9-9.1,13.2c-1.5,2.2-3.1,4.4-4.7,6.6c-1,1.4-2,2.8-3,4.1c-0.4,0.7-1.1,1.2-1.9,1.3c-0.5,0-0.9-0.2-1.3-0.4
			c-2.5-1.4-4.4-3.8-6.7-5.5c-1.6-1.2-3.4-2.1-5.4-2.7s-4.1-0.7-6.2-0.5c-1.9,0.3-3.7,0.8-5.4,1.6c-2.9,1.5-5.5,3.4-7.8,5.7
			c-2.9,2.8-5.4,5.9-7.9,9c-6,7.2-12,14.4-18,21.6l-0.7,0.8c-0.4,0.5-0.4,1.3,0.1,1.7c0.5,0.4,1.1,0.4,1.6,0
			c4.2-3.5,8.3-7.1,12.4-10.7c5.1-4.5,10.2-9,15.3-13.4c1-0.8,2-1.6,2.9-2.3c2.5-1.8,6.3-4.4,9.6-3.3c1.9,0.7,3.2,2.5,4.5,4
			c1,1.2,2.1,2.3,3.2,3.4c4.4,4,10.6,6.2,16.3,3.8c4.2-1.8,7-5.5,10-8.7c1.9-2,3.7-4.1,5.6-6.1c3.7-4.1,7.2-8.3,10.8-12.6
			c3.5-4.3,7-8.5,10.3-12.8c0.9-1.1,1.6-2,2.4-2.9c0.6-0.7,1.3-1.4,2-2c0.1,0.3,0.2,0.7,0.4,1c1.7,3.3,3.4,6.6,5.2,9.9
			c1.4,2.4,2.8,4.8,4.3,7.1c2.9,4.6,5.9,9,8.9,13.3c2.9,4.3,5.7,8.5,8.2,12.6l3.2,5.4c3.1,4,8.2,5.8,13.1,4.6
			c1.7-0.5,3.3-1.4,4.7-2.5c2.3-1.6,5.1-2.1,7.9-1.9c1.1,0,2.1,0.2,3.1,0.3c1.1,0.2,2.3,0.5,3.4,0.8c2.4,0.8,4.8,1.7,7.1,2.9
			c2.4,1.1,4.9,2.4,7.5,3.6c0.4,0.2,0.8,0.2,1.1,0C199,101.2,199.2,100.4,198.9,99.8L198.9,99.8z"/>
		<path class="st1" d="M19.5,131.7c1.5-1.2,3.1-2.4,4.6-3.6c1.6-1.2,3.1-2.4,4.7-3.5c10.4-7.6,21.9-13.8,35-14.2
			c9.1-0.3,18,2.7,27.1,1.9c5.2-0.4,9.9-2.5,14.7-4.4c6.6-2.6,13.8-4.9,21-4.7c2.6,0.1,5.1,0.4,7.7,0.9c4.5,1,8.9,2.5,13.1,4.6
			c3.6,1.8,7,3.8,10.3,6c3.1,2,6,3.9,8.7,5.5c3.3,1.9,6.8,3.6,10.6,4.4c4.1,0.7,7.2-0.5,11-1.7c2.1-0.7,4.4-1.1,6.6-1.1
			c0.7,0,1.2,0.6,1.2,1.3c0,0.3-0.1,0.6-0.3,0.8l0,0c-1.3,1.4-2.5,2.9-3.5,4.5c-1.1,1.8-2.4,3.5-3.7,5.1c-5.4,5.8-14,7.5-21.6,6.9
			c-2.4-0.2-4.8-0.6-7.1-1.1c-4.2-1.1-8.4-2.5-12.4-4.2c-4.8-2-9.4-4.4-14.1-6.6c-3.3-1.6-6.8-3.1-10.5-3.7s-7.5,0.1-11.1,1
			c-4.5,1.1-9,2.5-13.7,2.9c-5.7,0.5-11.5-0.1-17-1.6c-5.5-1.5-10.9-3.6-16.5-4.5c-11.5-1.9-22.3,2-32.7,6.5
			c-3.5,1.5-7.1,3.2-10.6,4.8c-0.6,0.3-1.3,0-1.5-0.6C19,132.7,19.1,132.1,19.5,131.7L19.5,131.7z"/>
		<path class="st2" d="M149.6,160.4c-6.3-1.3-12.5-0.8-18.8,0.7c-5.7,1.4-11.4,3.1-17.1,4.5c-5.8,1.3-11.7,2.1-17.7,2.4
			c-5,0.3-10.3,0.2-15.1-1.6c-8.9-3.4-17.5-11.2-20.1-20.7c-0.2-0.8,0.3-1.7,1.1-1.9H62h0.1c4.2-0.6,8.5-0.9,12.8-0.9
			c5.2,0,10.5-0.2,15.5,1.3c2.9,0.9,5.7,2,8.6,2.9c6.7,1.9,13.6,2.8,20.5,2.8c6.6,0,13.3,0.5,19.6,2.5c3.2,1,6.2,2.3,9,4.1
			c0.9,0.6,1.7,1.2,2.5,1.9c0.5,0.4,0.6,1.1,0.2,1.6C150.5,160.3,150.1,160.5,149.6,160.4L149.6,160.4z"/>
		<path class="st2" d="M263.9,90.2v6.2h-28.8v-6.2c-0.1-1.6,1-3,2.6-3.3l0.6-0.1l1.6-0.3L243,86V53l-3.1-0.5
			c-0.3-0.1-0.6-0.1-0.9-0.2c-0.2-0.1-0.4-0.1-0.7-0.1l-0.6-0.1c-1.6-0.2-2.7-1.6-2.6-3.2v-6.2h20.8V86l3.1,0.5
			c0.3,0.1,0.6,0.1,0.9,0.2c0.2,0.1,0.4,0.1,0.7,0.1l0.6,0.1C262.9,87.1,264,88.6,263.9,90.2z M257.2,30c-0.4,1-1,1.9-1.8,2.6
			c-0.7,0.8-1.6,1.4-2.6,1.8c-2.1,0.8-4.4,0.8-6.5,0c-0.9-0.4-1.8-1-2.5-1.8c-0.8-0.8-1.4-1.6-1.8-2.6c-0.4-1-0.6-2.1-0.6-3.1
			c0-1.1,0.2-2.2,0.6-3.3c0.4-1,1-1.9,1.8-2.6c0.7-0.7,1.6-1.3,2.5-1.7c2.1-1,4.4-1,6.5,0c1,0.4,1.9,0.9,2.6,1.7
			c0.8,0.7,1.4,1.6,1.8,2.6c0.5,1,0.7,2.1,0.7,3.3C257.9,28,257.6,29.1,257.2,30L257.2,30z"/>
		<path class="st2" d="M367.1,90.2v6.2h-20.8V62.2c0-3.5-0.7-6.1-2.2-7.8s-3.7-2.6-6.6-2.6c-1.3,0-2.6,0.3-3.8,0.7
			c-1.1,0.4-2.1,1.1-2.9,1.9c-0.9,1-1.5,2.1-2,3.2c-0.5,1.4-0.8,3-0.7,4.5V86l3,0.5l1.6,0.3l0.6,0.1c1.6,0.2,2.7,1.7,2.6,3.3v6.2
			H315V62.2c0-3.6-0.7-6.2-2.2-7.9s-3.6-2.5-6.4-2.5c-1.8,0-3.6,0.5-5.2,1.4c-1.7,1-3.2,2.3-4.5,3.9V86l3,0.5l1.6,0.3l0.6,0.1
			c1.6,0.2,2.7,1.7,2.6,3.3v6.2h-28.7v-6.2c-0.1-1.6,1-3,2.6-3.3l0.6-0.1c0.2,0,0.5,0,0.7-0.1s0.5-0.1,0.9-0.2l3-0.5V53l-3-0.5
			c-0.3-0.1-0.6-0.1-0.9-0.2c-0.2-0.1-0.4-0.1-0.7-0.1l-0.6-0.1c-1.8-0.4-2.7-1.5-2.7-3.2v-6.2h15.9c1.5-0.1,2.9,0.9,3.3,2.4l0.8,4
			c0.9-1,1.9-2,2.9-2.9c1.1-0.8,2.2-1.5,3.4-2.2c1.2-0.7,2.5-1.2,3.8-1.6c1.4-0.4,2.9-0.6,4.4-0.5c3.5,0,6.3,0.9,8.4,2.7
			c2.3,2,3.9,4.5,4.9,7.3c0.8-1.7,1.8-3.3,3.1-4.6c1.2-1.2,2.6-2.2,4.1-3s3.1-1.4,4.8-1.8c4.3-1,8.8-0.8,13,0.7
			c2.2,0.8,4.2,2.2,5.8,4c1.6,1.9,2.8,4,3.6,6.4c0.9,2.8,1.4,5.8,1.3,8.7V86l3,0.5c0.3,0.1,0.6,0.1,0.9,0.2c0.2,0.1,0.4,0.1,0.7,0.1
			l0.6,0.1C366,87.2,367.2,88.6,367.1,90.2z"/>
		<path class="st2" d="M408,42.6c2.8,1.1,5.2,2.7,7.3,4.8c2.1,2.2,3.8,4.8,4.8,7.6c1.2,3.3,1.8,6.8,1.8,10.3c0,0.8-0.1,1.7-0.2,2.5
			c-0.1,0.5-0.2,1-0.4,1.5c-0.2,0.4-0.5,0.7-0.9,0.8c-0.5,0.2-1,0.2-1.5,0.2h-33.2c0.4,5.5,1.9,9.6,4.5,12.1c2.6,2.6,6,3.9,10.3,3.9
			c1.8,0.1,3.6-0.2,5.3-0.7c1.4-0.4,2.7-1,4-1.7c0.5-0.3,1-0.5,1.5-0.8c0.5-0.2,1-0.5,1.5-0.8c0.7-0.5,1.5-0.7,2.4-0.7
			c0.5,0,1,0.1,1.5,0.3c0.4,0.2,0.7,0.5,0.9,0.8l3.8,4.7c-1.4,1.6-3,3.1-4.8,4.3c-1.7,1.1-3.6,2-5.5,2.7c-2,0.6-3.9,1.1-6,1.4
			c-1.9,0.3-3.9,0.4-5.9,0.4c-3.5,0.1-7.1-0.5-10.4-1.8c-3.2-1.2-6-3.1-8.4-5.5c-2.5-2.6-4.4-5.6-5.7-9c-1.4-4-2.1-8.2-2-12.5
			c0-3.5,0.6-7,1.8-10.3c1.1-3.1,2.8-6,5.1-8.5c2.3-2.4,5-4.4,8.1-5.7c3.4-1.4,7.2-2.2,10.9-2.1C401.8,41,405,41.5,408,42.6z
			 M390.1,53.5c-2.1,2.1-3.5,5.1-4.1,9h24.3c0-1.6-0.3-3.2-0.7-4.7c-0.5-1.4-1.2-2.7-2.1-3.9c-1-1.2-2.2-2.1-3.6-2.6
			c-1.6-0.7-3.3-1.1-5-1C395.2,50.3,392.3,51.3,390.1,53.5z"/>
		<path class="st2" d="M475.9,95.4c-0.7,0-1.5-0.2-2.1-0.6s-1-1.1-1.2-1.8l-1-4.9c-2.1,2.4-4.6,4.4-7.4,6c-3.1,1.6-6.5,2.4-10,2.3
			c-2.8,0.1-5.5-0.6-8-1.8c-2.5-1.3-4.6-3.1-6.3-5.3c-1.9-2.6-3.3-5.5-4.1-8.6c-1-3.8-1.5-7.8-1.5-11.7c0-3.8,0.5-7.5,1.6-11.1
			c1-3.2,2.6-6.3,4.7-8.9c2-2.4,4.4-4.4,7.2-5.8c2.9-1.5,6.2-2.2,9.5-2.2c2.7-0.1,5.3,0.4,7.8,1.5c2.1,0.9,4,2.2,5.7,3.8V28.2
			l-3-0.5c-0.3-0.1-0.6-0.1-0.9-0.2c-0.2-0.1-0.5-0.1-0.7-0.1l-0.6-0.1c-1.6-0.2-2.7-1.6-2.6-3.2v-6.2h20.8v67.4l2.7,0.4l1.4,0.3
			l0.6,0.1c1.6,0.2,2.7,1.6,2.6,3.3v6.2L475.9,95.4z M466.1,51.8c-1.8-0.8-3.7-1.1-5.7-1.2c-1.8,0-3.6,0.4-5.2,1.2s-3,1.9-4.1,3.3
			c-1.2,1.7-2,3.6-2.5,5.7c-0.6,2.6-0.9,5.4-0.8,8.1c-0.1,2.7,0.2,5.4,0.7,8.1c0.4,1.9,1.1,3.6,2.2,5.2c0.8,1.3,2,2.4,3.4,3
			c1.4,0.7,3,1,4.6,0.9c2.4,0.1,4.8-0.5,6.9-1.7c2.1-1.3,3.9-2.9,5.3-4.8v-24C469.7,54,468,52.7,466.1,51.8L466.1,51.8z"/>
		<path class="st2" d="M532.7,42.6c2.8,1.1,5.3,2.7,7.3,4.8c2.1,2.2,3.8,4.8,4.8,7.6c1.2,3.3,1.8,6.8,1.8,10.3
			c0,0.8-0.1,1.7-0.2,2.5c-0.1,0.5-0.2,1-0.4,1.5c-0.2,0.4-0.5,0.7-0.9,0.8c-0.5,0.2-1,0.2-1.5,0.2h-33.2c0.4,5.5,1.9,9.6,4.5,12.1
			c2.6,2.6,6,3.9,10.3,3.9c1.8,0.1,3.6-0.2,5.3-0.7c1.4-0.4,2.7-1,4-1.7c0.5-0.3,1-0.5,1.5-0.8c0.5-0.2,1-0.5,1.5-0.8
			c0.7-0.5,1.6-0.7,2.4-0.7c0.5,0,1,0.1,1.5,0.3c0.4,0.2,0.7,0.5,0.9,0.8l3.8,4.7c-1.4,1.6-3,3.1-4.8,4.3c-1.7,1.1-3.6,2-5.6,2.7
			c-1.9,0.6-3.9,1.1-6,1.4c-1.9,0.3-3.9,0.4-5.8,0.4c-3.5,0.1-7.1-0.5-10.4-1.8c-3.2-1.2-6-3.1-8.4-5.5c-2.5-2.6-4.4-5.6-5.7-9
			c-1.4-4-2.1-8.2-2-12.5c0-3.5,0.6-7,1.8-10.3c1.1-3.1,2.8-6,5.1-8.5c2.3-2.4,5-4.4,8.1-5.7c3.4-1.4,7.2-2.2,10.9-2.1
			C526.6,41,529.7,41.5,532.7,42.6z M514.8,53.5c-2.1,2.1-3.5,5.1-4.1,9H535c0-1.6-0.3-3.2-0.7-4.7c-0.5-1.4-1.2-2.7-2.1-3.9
			c-1-1.2-2.2-2-3.6-2.6c-1.6-0.7-3.3-1.1-5-1C519.9,50.2,517,51.3,514.8,53.5z"/>
		<path class="st2" d="M608.6,89.3v6.2h-12.4c-1,0.1-2-0.1-2.9-0.5c-0.7-0.3-1.2-1-1.6-2.3l-1.2-3.8c-1.2,1.2-2.6,2.3-4,3.3
			c-1.3,0.9-2.7,1.6-4.1,2.3c-1.4,0.6-2.9,1.1-4.4,1.4c-1.7,0.3-3.5,0.5-5.2,0.5c-2.1,0-4.3-0.3-6.3-0.9c-1.8-0.6-3.5-1.5-4.9-2.7
			c-1.4-1.3-2.5-2.8-3.2-4.6c-0.8-2-1.2-4.1-1.2-6.3c0-2.1,0.5-4.2,1.6-6.1c1.3-2.2,3.1-4.1,5.3-5.3c3-1.8,6.4-3.2,9.8-4
			c5.1-1.1,10.2-1.7,15.4-1.6v-3.1c0-3.5-0.8-6.2-2.3-8.1c-1.5-1.7-3.6-2.6-6.6-2.6c-1.8-0.1-3.5,0.2-5.2,0.7
			c-1.3,0.5-2.5,1-3.6,1.7l-2.9,1.5c-0.9,0.5-1.8,0.8-2.8,0.7c-0.8,0-1.6-0.2-2.3-0.6c-0.6-0.5-1.1-1-1.5-1.7l-2.4-4.1
			c6-5.6,14-8.7,22.3-8.6c2.9,0,5.8,0.5,8.5,1.6c2.3,1,4.4,2.4,6.2,4.3c1.7,1.9,3.1,4.2,4,6.6c0.9,2.7,1.3,5.5,1.3,8.4v23.8l2.8,0.5
			l1.2,0.2C607.6,86.3,608.7,87.7,608.6,89.3z M580,73.4c-2.1,0.4-4.2,1-6.2,1.9c-1.3,0.5-2.4,1.4-3.2,2.5c-0.6,1-1,2.1-0.9,3.2
			c0,2.4,0.7,4,2,4.9c1.6,1,3.4,1.5,5.2,1.5c1.2,0,2.4-0.1,3.6-0.3c1.1-0.2,2.2-0.6,3.2-1.2c1-0.5,1.9-1.1,2.8-1.8
			c1-0.8,1.9-1.6,2.8-2.5v-9C586.2,72.6,583.1,72.8,580,73.4z"/>
		<rect x="494.3" y="113.5" class="st2" width="0.7" height="58.8"/>
		<path class="st3" d="M543.5,156.8l1.1,0.2v0.4c-0.5,0-1.1,0-1.7,0c-0.5,0-1.1,0-1.7,0V157l1.1-0.2v-7.6l-1.1-0.2v-0.4
			c0.5,0,1.1,0,1.7,0c0.6,0,1.1,0,1.7,0v0.3l-1.1,0.2V156.8"/>
		<path class="st3" d="M547.6,156.8l1.1,0.2v0.4c-1.1-0.1-2.2-0.1-3.3,0V157l1.2-0.2v-7.9l-1-0.2v-0.4c0.6,0,1.3,0,1.9-0.1h0.1
			V156.8"/>
		<path class="st3" d="M551.4,156.8l1.1,0.2v0.4c-1.1-0.1-2.2-0.1-3.3,0V157l1.1-0.2v-7.9l-1-0.2v-0.4c0.6,0,1.3,0,1.9-0.1h0.1
			L551.4,156.8"/>
		<path class="st3" d="M553.2,154.4c-0.2-1.7,1.1-3.2,2.8-3.3c0.1,0,0.2,0,0.4,0c1.1,0,2.2,0.5,2.2,2.1l-0.2,0.8h-4.1v0.2
			c0,1.7,0.8,2.6,2.2,2.6c0.7,0,1.4-0.2,2-0.5l0.1,0.3c-0.7,0.6-1.6,1-2.5,1C554.2,157.5,553.2,156.1,553.2,154.4 M554.3,153.6
			l3.2-0.2c0-0.2,0-0.4,0-0.6c0.1-0.7-0.4-1.3-1-1.4c-0.1,0-0.1,0-0.2,0C555.2,151.4,554.5,152.4,554.3,153.6L554.3,153.6z"/>
		<path class="st3" d="M562.9,155.9c0-0.9-0.8-1-1.5-1.3c-1-0.4-1.8-0.7-1.8-1.8s0.8-1.8,2.2-1.8c0.6,0,1.2,0.1,1.8,0.4l-0.4,1.6
			l-0.4-0.1l-0.1-1.3c-0.3-0.2-0.6-0.3-1-0.2c-0.7,0-1.2,0.4-1.2,1.1c0,0.9,0.8,1,1.5,1.2c0.9,0.3,2,0.7,2,1.9s-1.2,2-2.4,2
			c-0.7,0-1.3-0.1-1.9-0.4l0.4-1.7l0.4,0.1l0.1,1.3c0.3,0.2,0.7,0.4,1.1,0.3c0.7,0.1,1.3-0.4,1.3-1C562.9,156,562.9,156,562.9,155.9
			"/>
		<path class="st3" d="M572.7,152.5c1.6,0.4,2.1,1.4,2.1,2.4c0,1.4-0.9,2.5-2.8,2.5c-1,0-1.7-0.1-2.3-0.1c-0.7,0-0.9,0-1.6,0V157
			l1.1-0.2v-7.6l-1.1-0.2v-0.4c0.4,0,0.8,0,1.2,0c0.7,0,1.4-0.1,2.3-0.1c1.9,0,2.9,0.7,2.9,2C574.4,151.7,573.7,152.2,572.7,152.5
			 M571,152.3c1.8,0,2.3-0.4,2.3-1.6c0-1.1-0.4-1.6-1.9-1.6h-1.1v3.2L571,152.3L571,152.3z M570.2,152.9v4h1.4
			c1,0.1,1.9-0.6,2.1-1.6c0-0.2,0-0.3,0-0.5c0-1.1-0.7-2-2.4-2L570.2,152.9z"/>
		<path class="st3" d="M579.3,153.2c0-1.1-0.4-1.6-1.2-1.6c-0.4,0-0.8,0.1-1.1,0.4l-0.1,1.4l-0.4,0.1l-0.6-1.1
			c0.7-0.8,1.7-1.2,2.8-1.2c1,0,1.6,0.7,1.6,1.8v4l1,0.2v0.4c-0.3,0-0.6,0-0.9,0c-0.3,0-0.7,0-1,0l-0.2-0.9c-0.5,0.6-1.2,0.9-1.9,1
			c-0.8,0-1.5-0.6-1.6-1.5c0-0.1,0-0.2,0-0.2c0-0.8,0.6-1.4,1.3-1.5h0.1c0.7,0,1.4,0.2,2.1,0.2L579.3,153.2 M577.6,154.9
			c-0.5,0-0.9,0.4-0.9,0.8c0,0.1,0,0.1,0,0.2c0,0.5,0.2,1,0.9,1c0.6,0,1.2-0.2,1.7-0.6v-1.4c-0.2,0.1-0.4,0.1-0.6,0.1
			C578.1,154.9,577.9,154.9,577.6,154.9L577.6,154.9z"/>
		<path class="st3" d="M584.2,156.8l1.1,0.2v0.4c-1.1-0.1-2.2-0.1-3.3,0V157l1.1-0.2v-7.9l-1-0.2v-0.4c0.6,0,1.3,0,1.9-0.1h0.1
			L584.2,156.8"/>
		<path class="st3" d="M586,154.4c-0.2-1.7,1.1-3.2,2.8-3.3c0.1,0,0.2,0,0.4,0c1.1,0,2.2,0.5,2.2,2.1l-0.2,0.8h-4.1v0.2
			c0,1.7,0.8,2.6,2.2,2.6c0.7,0,1.4-0.2,2-0.5l0.1,0.3c-0.7,0.6-1.6,1-2.5,1C586.9,157.5,586,156.1,586,154.4 M587,153.6l3.2-0.3
			c0-0.2,0.1-0.4,0-0.6c0.1-0.7-0.4-1.3-1.1-1.4c-0.1,0-0.1,0-0.2,0C587.9,151.4,587.2,152.4,587,153.6L587,153.6z"/>
		<path class="st3" d="M595.8,153.2c0-1.1-0.4-1.6-1.2-1.6c-0.4,0-0.8,0.1-1,0.4l-0.1,1.4l-0.4,0.1l-0.6-1.1
			c0.7-0.8,1.7-1.2,2.8-1.2c1,0,1.6,0.7,1.6,1.8v4l1,0.2v0.4c-0.3,0-0.6,0-0.9,0c-0.3,0-0.7,0-1,0l-0.1-0.9c-0.5,0.6-1.2,0.9-1.9,1
			c-0.8,0-1.5-0.6-1.6-1.5c0-0.1,0-0.2,0-0.2c0-0.8,0.6-1.4,1.3-1.5h0.1c0.7,0,1.4,0.2,2.1,0.2L595.8,153.2 M594.2,154.9
			c-0.5,0-0.9,0.4-0.9,0.8c0,0.1,0,0.1,0,0.2c0,0.5,0.2,1,0.9,1c0.6,0,1.2-0.2,1.7-0.6v-1.4c-0.2,0.1-0.4,0.1-0.6,0.1
			C594.6,154.9,594.4,154.9,594.2,154.9L594.2,154.9z"/>
		<path class="st3" d="M602.3,151.7c-0.7,0.1-1.3,0.5-1.7,1.1v4.1l1.4,0.2v0.4c-1-0.1-2.5-0.1-3.6,0V157l1.1-0.2v-5l-1-0.2v-0.4
			c0.6,0,1.3,0,1.9-0.1h0.1v1.2l0,0c0.4-0.7,1.1-1.2,1.9-1.2c0.3,0,0.6,0.1,0.8,0.3l-0.5,1.7h-0.4V151.7"/>
		<path class="st3" d="M607.5,155.9c0-0.9-0.8-1-1.5-1.3c-1-0.4-1.8-0.7-1.8-1.8s0.8-1.8,2.2-1.8c0.6,0,1.2,0.1,1.8,0.4l-0.4,1.6
			l-0.4-0.1l-0.1-1.3c-0.3-0.2-0.6-0.3-1-0.2c-0.7,0-1.2,0.4-1.2,1.1c0,0.9,0.7,1,1.5,1.2c0.9,0.3,2,0.7,2,1.9s-1.2,2-2.4,2
			c-0.7,0-1.3-0.1-1.9-0.4l0.4-1.7l0.4,0.1l0.1,1.3c0.3,0.2,0.7,0.4,1.1,0.3c0.7,0.1,1.3-0.4,1.3-1C607.6,156,607.6,156,607.5,155.9
			"/>
		<path class="st3" d="M511.7,156.8l1.3,0.2v0.4c-0.7,0-1.5,0.1-2.2,0.2h-0.1v-0.9h-0.1c-0.5,0.6-1.3,0.9-2.1,0.9
			c-1.6,0-2.5-1.3-2.5-3.3c-0.1-1.7,1.3-3.2,3-3.3c0.1,0,0.2,0,0.2,0c0.5,0,1,0.1,1.5,0.4v-2.6l-1-0.2v-0.4c0.6,0,1.3,0,1.9-0.1h0.1
			L511.7,156.8 M510.7,156.2v-2.8c0-1.5-0.9-1.9-1.5-1.9c-1.4,0-2.1,1.1-2.1,2.9s0.8,2.6,1.9,2.6
			C509.7,156.9,510.3,156.6,510.7,156.2L510.7,156.2z"/>
		<path class="st3" d="M513.7,154.4c-0.2-1.7,1.1-3.2,2.8-3.3c0.1,0,0.2,0,0.4,0c1.1,0,2.2,0.5,2.2,2.1l-0.2,0.8h-4.1v0.2
			c0,1.7,0.8,2.6,2.2,2.6c0.7,0,1.4-0.2,2-0.5l0.1,0.3c-0.7,0.6-1.6,1-2.5,1C514.6,157.5,513.6,156.1,513.7,154.4 M514.7,153.6
			l3.2-0.2c0-0.2,0-0.4,0-0.6c0.1-0.7-0.4-1.3-1.1-1.4c-0.1,0-0.1,0-0.2,0C515.6,151.4,514.9,152.4,514.7,153.6L514.7,153.6z"/>
		<path class="st3" d="M525.1,156.8l1.1,0.2v0.4c-1.1-0.1-2.2-0.1-3.3,0V157l1.2-0.2v-7.9l-1-0.2v-0.4c0.6,0,1.3,0,1.9-0.1h0.1
			V156.8"/>
		<path class="st3" d="M526.9,154.4c-0.2-1.7,1.1-3.2,2.7-3.3c0.1,0,0.2,0,0.4,0c1.1,0,2.2,0.5,2.2,2.1L532,154h-4.1v0.2
			c0,1.7,0.8,2.6,2.2,2.6c0.7,0,1.4-0.2,2-0.5l0.1,0.3c-0.7,0.6-1.6,1-2.5,1C527.8,157.5,526.8,156.1,526.9,154.4 M527.9,153.6
			l3.2-0.2c0-0.2,0-0.4,0-0.6c0.1-0.7-0.4-1.3-1.1-1.4c-0.1,0-0.1,0-0.2,0C528.8,151.4,528.1,152.4,527.9,153.6L527.9,153.6z"/>
		<path class="st3" d="M536.6,155.9c0-0.9-0.8-1-1.5-1.3c-1-0.4-1.8-0.7-1.8-1.8s0.8-1.8,2.2-1.8c0.6,0,1.2,0.1,1.8,0.4l-0.4,1.6
			l-0.4-0.1l-0.1-1.3c-0.3-0.2-0.6-0.3-1-0.2c-0.7,0-1.2,0.4-1.2,1.1c0,0.9,0.7,1,1.5,1.2c0.9,0.3,2,0.7,2,1.9s-1.2,2-2.4,2
			c-0.7,0-1.3-0.1-1.9-0.4l0.4-1.7l0.4,0.1l0.1,1.3c0.3,0.2,0.7,0.4,1.1,0.3c0.7,0.1,1.3-0.4,1.3-1.1
			C536.6,156,536.6,155.9,536.6,155.9"/>
		<path class="st3" d="M512.4,144.6c-3.9,0-6.3-1.5-6.3-6v-9.5h3.6v9.4c0,2.2,0.9,3.1,2.8,3.1c1.7,0,2.6-0.9,2.6-3.1v-9.2l3.6-0.6
			v9.9C518.7,143.1,516.3,144.6,512.4,144.6"/>
		<path class="st3" d="M527.1,144.2v-7c0-1.1-0.3-1.6-1.2-1.6c-0.7,0.1-1.4,0.5-1.8,1.1v7.4h-3.7v-10.7l2.9-0.6l0.6,1.3
			c0.9-0.8,2-1.3,3.2-1.3c1.9,0,3.7,0.9,3.7,3.6v7.7h-3.7"/>
		<path class="st3" d="M532.9,144.2v-10.7l3.7-0.6v11.2h-3.7 M534.8,131.9c-1,0-1.8-0.9-1.7-1.9s0.9-1.8,1.9-1.7
			c1,0,1.7,0.8,1.7,1.8c0.1,0.9-0.7,1.8-1.6,1.8C535,131.9,534.9,131.9,534.8,131.9z"/>
		<polyline class="st3" points="544.9,144.2 541.2,144.2 537.6,133.6 541.1,133 543.3,140.1 545.4,133.3 549,133.3 544.9,144.2 		
			"/>
		<path class="st3" d="M552.4,139.4c0,1.5,0.7,2.5,2.4,2.5c1.1,0,2.3-0.3,3.3-0.8l1,2.4c-1.5,0.7-3.2,1.1-4.8,1
			c-3.9,0-5.5-2.1-5.5-5.8c0-3.9,2.4-5.8,5.6-5.8c3.6,0,4.7,2.3,4.7,5.2l-0.4,1.3L552.4,139.4 M552.5,137.6h3.1
			c0-1.6-0.5-2.3-1.5-2.3C553.2,135.3,552.5,136.1,552.5,137.6L552.5,137.6z"/>
		<path class="st3" d="M567.1,136c-0.3-0.1-0.6-0.2-1-0.2c-0.8,0-1.6,0.4-2,1.1v7.3h-3.7v-10.6l3.4-0.6l0.1,1.6
			c0.5-1,1.5-1.6,2.6-1.6c0.5,0,1,0.1,1.5,0.3L567.1,136"/>
		<path class="st3" d="M572,144.6c-1.5,0.1-3-0.3-4.4-1l0.8-2.4c0.9,0.6,2,1,3.1,1c0.8,0,1.3-0.4,1.3-1c0-1.5-4.9-1.4-4.9-4.9
			c0-2.3,2.1-3.3,4.6-3.3c1.4-0.1,2.7,0.2,3.9,0.8l-0.9,2.4c-0.8-0.6-1.8-0.9-2.8-0.9c-0.8,0-1.3,0.4-1.3,1s0.7,0.9,1.7,1.3
			c2.1,0.8,3.1,1.4,3.1,3.6C576.3,143.3,574.7,144.6,572,144.6"/>
		<path class="st3" d="M577.4,144.2v-10.7l3.7-0.6v11.2h-3.7 M579.3,131.9c-1,0-1.8-0.9-1.7-1.9c0-1,0.9-1.8,1.9-1.7
			c1,0,1.7,0.8,1.7,1.8c0.1,1-0.7,1.8-1.6,1.8C579.5,131.9,579.4,131.9,579.3,131.9z"/>
		<path class="st3" d="M590.1,143.4c-1,0.8-2.3,1.2-3.6,1.2c-1.5,0-2.9-0.7-2.9-2.8v-6.5H582l0.4-1.8l1.2-0.2l0.4-2.7l3.2-0.4v3.1
			h2.5v2h-2.5v5.5c0,0.8,0.2,1,0.7,1s0.9-0.2,1.2-0.5L590.1,143.4"/>
		<path class="st3" d="M597.2,144.2l-0.4-1.1c-0.8,1-2,1.5-3.3,1.5c-1.9,0-3.1-1.1-3.1-2.8c0-1.1,0.3-4,6-4v-0.9
			c0-1-0.7-1.3-1.8-1.3c-1,0.1-2.1,0.4-3,0.9l-0.9-2.3c1.4-0.9,3.1-1.3,4.8-1.2c2.9,0,4.6,1.4,4.6,3.8v7.4L597.2,144.2 M596.4,139.6
			c-2.3,0-2.6,1.2-2.6,1.8s0.2,1,0.9,1c0.7-0.1,1.3-0.4,1.6-1L596.4,139.6z"/>
		<path class="st3" d="M608.6,143.4c-1,0.8-2.3,1.2-3.6,1.2c-1.5,0-2.9-0.7-2.9-2.8v-6.5h-1.6l0.4-1.8l1.2-0.2l0.4-2.7l3.2-0.4v3.1
			h2.5v2h-2.5v5.5c0,0.8,0.2,1,0.7,1s0.9-0.2,1.2-0.5L608.6,143.4"/>
		<path class="st2" d="M462.5,142.7h-0.7v6h1.3c1.8,0,2.3-1.3,2.3-2.9C465.4,144,464.5,142.7,462.5,142.7z"/>
		<path class="st2" d="M464.8,139.6c0-1.6-0.7-2.3-2.1-2.3h-0.9v4.6h0.4C464.3,141.9,464.8,141.3,464.8,139.6z"/>
		<path class="st2" d="M482.1,140l-25.2-25.3c-1.6-1.6-4.2-1.6-5.8,0L425.8,140c-1.6,1.6-1.6,4.2,0,5.8L451,171
			c1.6,1.6,4.2,1.6,5.8,0l25.2-25.2C483.7,144.2,483.7,141.6,482.1,140z M453.7,127.2c4.7,0,6.2,4.2,5.6,5.4
			c-2.2-2.8-8.7-3-10.2-0.2C447.2,133,449.7,127.2,453.7,127.2z M456.7,148.9v0.7c-0.6,0-1.7-0.1-2.6-0.1c-1,0-2.1,0-2.7,0.1v-0.7
			l1.3-0.4v-11.1l-1.3-0.4v-0.7c0.6,0,1.7,0.1,2.6,0.1s2.1,0,2.7-0.1v0.7l-1.3,0.4v11L456.7,148.9z M444.3,149.7
			c-3.4,0-4.8-2.1-4.8-5.6v-6.7l-1.2-0.4v-0.7c0.6,0,1.5,0.1,2.4,0.1s1.9,0,2.5-0.1v0.7l-1.2,0.4v6.5c0,3.2,0.7,4.6,2.8,4.6
			c2.2,0,3-1.7,3-4.6v-6.5l-1.7-0.4v-0.7c0.6,0,1.4,0.1,2.2,0.1c0.8,0,1.5,0,2.1-0.1v0.7l-1.6,0.4v6.7
			C448.8,147.7,447.2,149.7,444.3,149.7L444.3,149.7z M454,156.3c-1.7,1.2-1.7,2.5-3.2,2.3l-1-2.7c-0.9,0.9-0.8,1.5-1.7,2.6
			c-2.1-1.5,1.2-3.8,2.1-5.1c1,1.6,0.9,1.7,1.5,2.6c0.8,1.2,2.5-3.8,3.2-2.8c1,4.6,2.9,3.6,6,2.1C462.9,157,453.1,161.7,454,156.3
			L454,156.3z M463.5,149.6c-1.6,0-2.3-0.1-3.7-0.1c-0.9,0-1.3,0-2.1,0.1v-0.7l1.3-0.3v-11.2l-1.3-0.3v-0.7c0.1,0,1.1,0.1,2.1,0.1
			c1.7,0,1.9-0.1,3.2-0.1c3,0,4.7,1,4.7,3c0,1.6-1.2,2.4-2.7,2.8l0,0c2.4,0.6,3.3,2.1,3.3,3.6C468.3,148,466.9,149.6,463.5,149.6
			L463.5,149.6z"/>
		<path class="st3" d="M239.7,158.9l-0.4,0.6h-0.1v-0.1c0-0.1-0.1-0.2-0.3-0.3c-0.3-0.1-0.6-0.2-1-0.2s-0.8,0.1-1.2,0.4
			c-0.3,0.3-0.5,0.6-0.5,1s0.2,0.8,0.5,1c0.3,0.3,0.7,0.4,1.1,0.4c0.4,0,0.8-0.1,1.1-0.4c0.2-0.1,0.2-0.2,0.2-0.2V161h0.1l0.5,0.5
			l-0.1,0.1c-0.1,0-0.1-0.1-0.1-0.1s-0.1,0-0.1,0.1c-0.2,0.1-0.3,0.2-0.4,0.3c-0.1,0.1-0.2,0.1-0.3,0.1c-0.3,0.1-0.5,0.1-0.8,0.1
			c-0.5,0-1-0.1-1.4-0.5c-0.4-0.3-0.6-0.8-0.6-1.3c0-0.4,0.1-0.8,0.4-1.1c0.4-0.5,1-0.8,1.7-0.7c0.5,0,1,0.1,1.5,0.4h0.1
			C239.5,158.9,239.6,158.9,239.7,158.9L239.7,158.9"/>
		<path class="st3" d="M242,159.5c-0.4,0-0.7,0.1-1,0.4c-0.4,0.4-0.4,1.2,0,1.6c0.6,0.5,1.4,0.5,2,0c0.2-0.2,0.3-0.5,0.3-0.8
			s-0.1-0.6-0.3-0.8C242.8,159.6,242.4,159.5,242,159.5 M242,159.2c0.4,0,0.9,0.1,1.2,0.4c0.3,0.3,0.5,0.7,0.5,1.1
			c0,0.3-0.1,0.6-0.2,0.8c-0.3,0.5-0.9,0.7-1.5,0.7c-0.4,0-0.9-0.1-1.2-0.4c-0.3-0.3-0.5-0.7-0.5-1.1c0-0.3,0.1-0.6,0.2-0.8
			c0.2-0.3,0.4-0.4,0.7-0.5C241.6,159.2,241.8,159.2,242,159.2"/>
		<path class="st3" d="M244.8,159.7v2.1c0,0.1,0,0.1,0,0.1l0.1,0.1v0.1h-0.6V162c0,0,0.1,0,0.1-0.1v-0.1v-2.3c0-0.1,0-0.1,0-0.2
			l-0.1-0.1v-0.1h0.9v0.1c-0.1,0-0.1,0.1-0.1,0.1c0,0.1,0,0.1,0.1,0.2l1.7,1.9v-2c0,0,0-0.1,0-0.2l-0.1-0.1V159h0.6v0.1
			c-0.1,0-0.1,0-0.1,0.1c0,0,0,0.1,0,0.2v2.3v0.1l0.1,0.1v0.1h-0.7l0,0c0.1,0,0.1-0.1,0.1-0.1s0-0.1-0.1-0.2L244.8,159.7"/>
		<path class="st3" d="M250.6,159.4l-0.3,0.5h-0.1v-0.1c0,0-0.1-0.1-0.2-0.1c-0.3-0.1-0.6-0.2-0.9-0.2c-0.2,0-0.5,0-0.7,0.1
			s-0.3,0.2-0.3,0.4c0,0.1,0,0.2,0.1,0.2c0,0.1,0.1,0.1,0.2,0.1c0.1,0,0.2,0,0.3,0.1h0.6c0.2,0,0.4,0,0.6,0c0.1,0,0.2,0.1,0.3,0.1
			c0.1,0.1,0.2,0.1,0.2,0.2c0.1,0.1,0.1,0.2,0.1,0.3c0,0.3-0.1,0.5-0.3,0.6c-0.3,0.2-0.7,0.3-1,0.3c-0.2,0-0.4,0-0.7-0.1
			c-0.2-0.1-0.4-0.1-0.6-0.3h0.1c0,0-0.1,0-0.1,0.1h-0.1l0.3-0.5h0.1l0,0c0,0,0,0,0,0.1c0,0,0.1,0.1,0.3,0.2
			c0.3,0.2,0.6,0.2,0.9,0.2c0.3,0,0.5,0,0.7-0.2c0.1,0,0.2-0.1,0.2-0.2c0.1-0.1,0.1-0.2,0.1-0.3s0-0.2-0.1-0.2
			c0-0.1-0.1-0.1-0.2-0.1l-0.2-0.1h-0.5c-0.3,0-0.5,0-0.6,0s-0.2,0-0.3-0.1c-0.1,0-0.2-0.1-0.3-0.2c-0.1-0.1-0.1-0.3-0.1-0.4
			c0-0.3,0.1-0.5,0.4-0.6c0.3-0.2,0.6-0.2,1-0.2s0.7,0.1,1.1,0.2h0.1C250.5,159.5,250.6,159.5,250.6,159.4L250.6,159.4"/>
		<path class="st3" d="M251.7,160.8v1.1h1.7c0.1,0,0.1,0,0.2,0l0.1-0.1h0.1v0.6h-0.1c0,0,0-0.1-0.1-0.1s-0.1,0-0.2,0h-2.3V162
			c0.1,0,0.2-0.1,0.2-0.2l0,0v-2.3c0-0.1,0-0.1,0-0.2l-0.1-0.1v-0.1h2.3c0.1,0,0.1,0,0.1,0l0.1-0.1h0.1v0.6h-0.1
			c0-0.1,0-0.1-0.1-0.1h-0.1h-1.7v1h1.1c0.1,0,0.1,0,0.2,0l0.1-0.1h0.1v0.6h-0.1c0-0.1,0-0.1-0.1-0.1H253L251.7,160.8"/>
		<path class="st3" d="M254,162l0.3-0.6h0.1v0.1c0,0,0,0.1,0.1,0.1c0.1,0.1,0.2,0.1,0.3,0.2c0.1,0,0.3,0.1,0.4,0.1
			c0.1,0,0.2,0,0.3-0.1c0.1,0,0.2-0.1,0.2-0.2c0.1-0.2,0.1-0.3,0.1-0.5v-1.6c0-0.1,0-0.1,0-0.2l-0.1-0.1v-0.1h0.7v0.1
			c-0.1,0-0.1,0-0.1,0.1c0,0,0,0.1,0,0.2v1.7c0,0.1,0,0.3,0,0.4c0,0.1-0.1,0.2-0.1,0.3c-0.1,0.1-0.2,0.2-0.3,0.2
			c-0.1,0.1-0.3,0.1-0.5,0.1s-0.3,0-0.5-0.1s-0.3-0.1-0.5-0.1c0,0,0,0-0.1,0c0,0-0.1,0-0.1,0.1L254,162"/>
		<path class="st3" d="M258.5,159.5c-0.4,0-0.7,0.1-1,0.4c-0.4,0.5-0.4,1.2,0,1.6c0.3,0.3,0.6,0.4,1,0.4s0.7-0.1,1-0.4
			c0.2-0.2,0.3-0.5,0.3-0.8s-0.1-0.6-0.3-0.8C259.2,159.6,258.8,159.5,258.5,159.5 M258.5,159.2c0.4,0,0.9,0.1,1.2,0.4
			c0.3,0.3,0.5,0.7,0.5,1.1c0,0.3-0.1,0.6-0.2,0.8c-0.3,0.5-0.9,0.7-1.5,0.7c-0.4,0-0.9-0.1-1.2-0.4c-0.3-0.3-0.5-0.7-0.5-1.1
			c0-0.3,0.1-0.6,0.2-0.8c0.2-0.3,0.4-0.4,0.7-0.5C258,159.2,258.2,159.2,258.5,159.2"/>
		<path class="st3" d="M265.3,158.8l-0.4,0.7h-0.1v-0.1c0,0-0.1-0.1-0.2-0.2c-0.3-0.2-0.7-0.2-1.1-0.2c-0.3,0-0.6,0.1-0.8,0.2
			c-0.1,0-0.2,0.1-0.3,0.2c-0.1,0.1-0.1,0.2-0.1,0.3s0,0.2,0.1,0.2c0,0.1,0.1,0.1,0.2,0.2c0.1,0,0.2,0.1,0.3,0.1c0.2,0,0.4,0,0.6,0
			c0.4,0,0.7,0,0.8,0.1c0.1,0,0.3,0.1,0.4,0.1c0.3,0.1,0.4,0.4,0.4,0.7s-0.1,0.6-0.4,0.8s-0.8,0.4-1.2,0.3c-0.3,0-0.5,0-0.8-0.1
			s-0.5-0.2-0.8-0.3l-0.1-0.1c0,0-0.1,0-0.1,0.1h-0.1l0.4-0.6h0.1c0,0,0,0.1-0.1,0.1c0,0.1,0.1,0.1,0.3,0.3c0.2,0.1,0.4,0.2,0.6,0.2
			c0.2,0.1,0.4,0.1,0.6,0.1c0.3,0,0.7-0.1,1-0.3c0.1-0.1,0.2-0.3,0.2-0.5s-0.2-0.4-0.4-0.5c-0.1,0-0.2-0.1-0.2-0.1h-0.7
			c-0.2,0-0.5,0-0.7-0.1c-0.2,0-0.3-0.1-0.4-0.2c-0.1-0.1-0.2-0.2-0.3-0.3c-0.1-0.1-0.1-0.3-0.1-0.4c0-0.2,0.1-0.5,0.3-0.6
			c0.2-0.1,0.4-0.2,0.6-0.3c0.3-0.1,0.5-0.1,0.8-0.1c0.2,0,0.4,0,0.6,0.1s0.5,0.1,0.7,0.2h0.1C265.2,158.9,265.2,158.9,265.3,158.8
			L265.3,158.8"/>
		<path class="st3" d="M266.4,159.5v1.5c0,0.2,0,0.3,0,0.5c0,0.1,0.1,0.2,0.1,0.2c0.2,0.1,0.5,0.2,0.8,0.2s0.6,0,0.8-0.2
			c0.1-0.1,0.1-0.1,0.1-0.2c0-0.1,0-0.3,0-0.4v-1.5c0-0.1,0-0.1,0-0.2l-0.1-0.1v-0.1h0.6v0.1c0,0-0.1,0-0.1,0.1c0,0,0,0.1,0,0.2v1.5
			c0,0.2,0,0.4-0.1,0.6c-0.1,0.2-0.2,0.3-0.4,0.4c-0.3,0.1-0.5,0.1-0.8,0.1c-0.4,0-0.7-0.1-1-0.3c-0.1-0.1-0.2-0.2-0.2-0.3
			c0-0.2,0-0.3,0-0.5v-1.5c0-0.1,0-0.1,0-0.2l-0.1-0.1v-0.1h0.6v0.1C266.6,159.3,266.5,159.3,266.4,159.5
			C266.3,159.4,266.3,159.5,266.4,159.5"/>
		<path class="st3" d="M269.8,160.5h1c0.1,0,0.3,0,0.4,0s0.2,0,0.2-0.1c0.1-0.1,0.2-0.2,0.2-0.4s0-0.3-0.2-0.4
			c-0.1,0-0.1-0.1-0.2-0.1s-0.3,0-0.4,0h-1V160.5 M269.8,160.9v1v0.1l0.1,0.1v0.1h-0.7V162c0,0,0.1,0,0.1-0.1v-0.1v-2.3v-0.1
			l-0.1-0.1v-0.1h1.6c0.2,0,0.3,0,0.5,0c0.1,0,0.2,0.1,0.3,0.1c0.1,0.1,0.2,0.2,0.2,0.3c0.1,0.1,0.1,0.3,0.1,0.4
			c0,0.1,0,0.3-0.1,0.4c-0.1,0.1-0.1,0.2-0.2,0.3s-0.2,0.1-0.3,0.1c-0.2,0-0.3,0-0.5,0L269.8,160.9z"/>
		<path class="st3" d="M272.9,160.8v1.1h1.8c0.1,0,0.1,0,0.2,0l0.1-0.1h0.1v0.6H275c0,0,0-0.1-0.1-0.1s-0.1,0-0.2,0h-2.3V162
			c0.1,0,0.2-0.1,0.2-0.2l0,0v-2.3c0-0.1,0-0.1,0-0.2l-0.1-0.1v-0.1h2.3c0.1,0,0.1,0,0.2,0l0.1-0.1h0.1v0.6h-0.1
			c0-0.1,0-0.1-0.1-0.1s-0.1,0-0.2,0H273v1h1.1h0.1l0.1-0.1h0.1v0.6h-0.1c0-0.1,0-0.1-0.1-0.1h-0.1L272.9,160.8"/>
		<path class="st3" d="M276,160.5h1.1h0.4c0.1,0,0.1,0,0.2-0.1s0.2-0.2,0.2-0.4s-0.1-0.3-0.2-0.4c-0.2-0.1-0.4-0.1-0.6-0.1H276
			V160.5 M276,160.8v1v0.1l0.1,0.1v0.1h-0.7V162c0,0,0.1,0,0.1-0.1v-0.1v-2.3c0,0,0-0.1,0-0.2l-0.1-0.1v-0.1h1.7c0.2,0,0.3,0,0.5,0
			c0.1,0,0.2,0.1,0.3,0.1c0.2,0.1,0.3,0.4,0.3,0.6c0,0.2-0.1,0.4-0.2,0.5c-0.2,0.1-0.4,0.2-0.6,0.2l0.7,1.1c0,0,0,0.1,0.1,0.1h0.1
			v0.1h-0.7v0.2c0.1,0,0.1,0,0.1-0.1c0,0,0-0.1-0.1-0.1l-0.7-1L276,160.8z"/>
		<path class="st3" d="M279,161.8v-2.3c0-0.1,0-0.1,0-0.2l-0.1-0.1v-0.1h0.7v0.1c0,0-0.1,0-0.1,0.1c0,0,0,0.1,0,0.2v2.3
			c0,0.1,0,0.1,0,0.1l0.1,0.1v0.1h-0.7V162C279,162,279,162,279,161.8C279,161.9,279,161.9,279,161.8"/>
		<path class="st3" d="M281.8,159.5c-0.4,0-0.7,0.1-1,0.4c-0.4,0.4-0.4,1.2,0,1.6c0.6,0.5,1.4,0.5,2,0c0.2-0.2,0.3-0.5,0.3-0.8
			s-0.1-0.6-0.3-0.8C282.5,159.6,282.2,159.5,281.8,159.5 M281.8,159.2c0.4,0,0.9,0.1,1.2,0.4c0.3,0.3,0.5,0.7,0.5,1.1
			c0,0.3-0.1,0.6-0.2,0.8c-0.3,0.5-0.9,0.7-1.5,0.7c-0.4,0-0.9-0.1-1.2-0.4c-0.3-0.3-0.5-0.7-0.5-1.1c0-0.3,0.1-0.6,0.2-0.8
			c0.2-0.3,0.4-0.4,0.7-0.5C281.3,159.2,281.6,159.2,281.8,159.2"/>
		<path class="st3" d="M284.6,160.5h1.1h0.4c0.1,0,0.2,0,0.2-0.1c0.1-0.1,0.2-0.2,0.2-0.4s-0.1-0.3-0.2-0.4
			c-0.2-0.1-0.4-0.1-0.6-0.1h-1.1V160.5 M284.6,160.8v1c0,0.1,0,0.1,0,0.1l0.1,0.1v0.1H284V162c0,0,0.1,0,0.1-0.1v-0.1v-2.3
			c0-0.1,0-0.1,0-0.2l-0.1-0.1v-0.1h1.7c0.2,0,0.3,0,0.5,0c0.1,0,0.2,0.1,0.3,0.1c0.2,0.1,0.3,0.4,0.3,0.6c0,0.2-0.1,0.4-0.2,0.5
			c-0.2,0.1-0.4,0.2-0.6,0.2l0.7,1.1c0,0,0,0.1,0.1,0.1h0.1v0.1h-0.7v0.2c0.1,0,0.1,0,0.1-0.1c0,0,0-0.1-0.1-0.1l-0.7-1L284.6,160.8
			z"/>
		<path class="st3" d="M289.2,161.8h0.9c0.3,0,0.5,0,0.7-0.1s0.3-0.3,0.4-0.5s0.1-0.4,0.1-0.6c0-0.3-0.1-0.6-0.3-0.8
			c-0.1-0.1-0.2-0.2-0.4-0.2c-0.2-0.1-0.4-0.1-0.6-0.1h-0.9L289.2,161.8 M288.8,161.8v-2.3c0-0.1,0-0.1,0-0.2l-0.1-0.1v-0.1h1.5
			c0.3,0,0.6,0,0.9,0.1c0.2,0.1,0.4,0.3,0.5,0.6c0.1,0.2,0.2,0.5,0.2,0.7c0,0.3-0.1,0.6-0.2,0.8s-0.3,0.4-0.5,0.5
			c-0.3,0.1-0.6,0.2-0.9,0.1h-1.5v0.1C288.7,162,288.8,162,288.8,161.8C288.8,161.9,288.8,161.9,288.8,161.8"/>
		<path class="st3" d="M292.7,160.8v1.1h1.8c0.1,0,0.1,0,0.2,0l0.1-0.1h0.1v0.6h-0.1c0,0,0-0.1-0.1-0.1s-0.1,0-0.2,0h-2.3V162
			c0,0,0.1,0,0.1-0.1v-0.1v-2.3c0-0.1,0-0.1,0-0.2l-0.1-0.1v-0.1h2.3c0.1,0,0.1,0,0.1,0l0.1-0.1h0.1v0.6h-0.1c0-0.1,0-0.1-0.1-0.1
			h-0.1h-1.7v1h1.1c0.1,0,0.1,0,0.2,0l0.1-0.1h0.1v0.6h-0.1c0-0.1,0-0.1-0.1-0.1H294L292.7,160.8"/>
		<path class="st3" d="M296.8,161.8v-2.9v-0.1l-0.1-0.1v-0.1h0.7v0.1c-0.1,0-0.1,0-0.1,0.1v0.1v2.9c0,0,0,0.1,0,0.2l0.1,0.1v0.1
			h-0.7V162C296.8,162,296.8,162,296.8,161.8C296.8,161.9,296.8,161.9,296.8,161.8"/>
		<path class="st3" d="M298.6,159.7v2.1v0.1l0.1,0.1v0.1h-0.6V162c0,0,0.1,0,0.1-0.1v-0.1v-2.3c0-0.1,0-0.1,0-0.2l-0.1-0.1v-0.1h0.9
			v0.1c-0.1,0-0.1,0.1-0.1,0.1c0,0.1,0,0.1,0.1,0.2l1.7,1.9v-2c0-0.1,0-0.1,0-0.2l-0.1-0.1V159h0.6v0.1c-0.1,0-0.1,0-0.1,0.1
			c0,0,0,0.1,0,0.2v2.3c0,0.1,0,0.1,0,0.1l0.1,0.1v0.1h-0.7l0,0c0.1,0,0.1-0.1,0.1-0.1s0-0.1-0.1-0.2L298.6,159.7"/>
		<path class="st3" d="M303.1,161.7l0.9-2.1v-0.1c0-0.1-0.1-0.1-0.1-0.1v-0.1h0.7v0.1c-0.1,0-0.1,0-0.2,0.1s-0.1,0.2-0.1,0.3l-0.9,2
			c0,0.1-0.1,0.1-0.1,0.2c0,0.1,0.1,0.1,0.1,0.1v0.1h-0.9V162c0.1,0,0.1-0.1,0.1-0.1c0-0.1,0-0.1-0.1-0.2l-0.9-2
			c0-0.1-0.1-0.2-0.2-0.3c0,0-0.1-0.1-0.2-0.1v-0.1h0.8v0.1c-0.1,0-0.1,0.1-0.1,0.1c0,0.1,0,0.1,0,0.1L303.1,161.7"/>
		<path class="st3" d="M305.5,160.8v1.1h1.8c0.1,0,0.1,0,0.1,0l0.1-0.1h0.1v0.6h-0.1c0-0.1,0-0.1-0.1-0.1h-0.1H305V162
			c0,0,0.1,0,0.1-0.1v-0.1v-2.3c0-0.1,0-0.1,0-0.2l-0.1-0.1v-0.1h2.3c0.1,0,0.1,0,0.2,0l0.1-0.1h0.1v0.6h-0.1c0-0.1,0-0.1-0.1-0.1
			s-0.1,0-0.2,0h-1.7v1h1.1c0,0,0.1,0,0.2,0l0.1-0.1h0.1v0.6H307c0,0,0-0.1-0.1-0.1h-0.1L305.5,160.8"/>
		<path class="st3" d="M310.8,159.4l-0.3,0.5h-0.1v-0.1c0,0-0.1-0.1-0.2-0.1c-0.3-0.1-0.6-0.2-0.9-0.2c-0.2,0-0.5,0-0.7,0.1
			s-0.3,0.2-0.3,0.4c0,0.1,0,0.2,0.1,0.2c0.1,0.1,0.1,0.1,0.2,0.1s0.2,0,0.2,0.1h0.6c0.2,0,0.4,0,0.6,0c0.1,0,0.2,0.1,0.3,0.1
			c0.1,0.1,0.2,0.1,0.2,0.2c0.1,0.1,0.1,0.2,0.1,0.3c0,0.3-0.1,0.5-0.3,0.6c-0.3,0.2-0.7,0.3-1,0.3c-0.2,0-0.4,0-0.7-0.1
			c-0.2-0.1-0.4-0.1-0.6-0.3h-0.1c0,0-0.1,0-0.1,0.1h-0.1l0.3-0.5h0.1l0,0c0,0,0,0,0,0.1c0,0,0.1,0.1,0.3,0.2
			c0.3,0.2,0.6,0.2,0.9,0.2s0.5,0,0.7-0.2c0.1,0,0.2-0.1,0.2-0.2c0.1-0.1,0.1-0.2,0.1-0.3s0-0.2-0.1-0.2c0-0.1-0.1-0.1-0.2-0.1
			s-0.1,0-0.2-0.1h-0.5c-0.3,0-0.5,0-0.6,0s-0.2,0-0.3-0.1c-0.1,0-0.2-0.1-0.3-0.2c-0.1-0.1-0.1-0.3-0.1-0.4c0-0.3,0.1-0.5,0.4-0.6
			c0.3-0.2,0.6-0.2,1-0.2s0.7,0.1,1.1,0.2h0.1C310.7,159.5,310.7,159.5,310.8,159.4L310.8,159.4"/>
		<path class="st3" d="M312.7,159.5v2.3c0,0.1,0,0.1,0,0.1l0.1,0.1v0.1h-0.7V162c0.1,0,0.1,0,0.1-0.1v-0.1v-2.3h-0.9h-0.1l-0.1,0.1
			H311V159h0.1c0,0,0,0.1,0.1,0.1h0.1h2.2c0.1,0,0.1,0,0.1,0l0.1-0.1h0.1v0.6l0,0c0,0,0-0.1-0.1-0.1h-0.1L312.7,159.5"/>
		<path class="st3" d="M314.4,161.8v-2.3c0,0,0-0.1,0-0.2l-0.1-0.1v-0.1h0.7v0.1c-0.1,0-0.1,0-0.1,0.1c0,0,0,0.1,0,0.2v2.3v0.1
			l0.1,0.1v0.1h-0.7V162C314.3,162,314.4,162,314.4,161.8C314.5,161.9,314.5,161.9,314.4,161.8"/>
		<path class="st3" d="M318.6,159.5l-0.3,0.6h-0.1V160c0,0-0.1-0.1-0.2-0.2c-0.3-0.1-0.5-0.2-0.8-0.2s-0.6,0.1-0.9,0.3
			s-0.4,0.5-0.4,0.9c0,0.3,0.1,0.6,0.3,0.8c0.3,0.2,0.6,0.4,0.9,0.3c0.2,0,0.4,0,0.6-0.1c0.2,0,0.3-0.1,0.4-0.2V161h-0.6
			c-0.1,0-0.1,0-0.1,0l-0.1,0.1h-0.1v-0.6h0.1c0,0,0,0.1,0.1,0.1h0.1h1.1v0.1c0,0-0.1,0-0.1,0.1s0,0.1,0,0.2v0.3v0.1l0.1,0.1v0.1
			c-0.4,0.4-1,0.6-1.5,0.6c-0.4,0-0.8-0.1-1.1-0.4c-0.2-0.1-0.3-0.3-0.4-0.5s-0.1-0.4-0.1-0.6c0-0.3,0.1-0.6,0.3-0.9
			c0.2-0.2,0.4-0.4,0.7-0.5c0.2-0.1,0.5-0.1,0.7-0.1s0.4,0,0.6,0.1s0.4,0.2,0.6,0.3h0.1C318.4,159.5,318.5,159.5,318.6,159.5
			L318.6,159.5"/>
		<path class="st3" d="M321,161l-0.6-1.4l-0.6,1.4H321 M321.2,161.3h-1.5l-0.2,0.5v0.1c0,0.1,0.1,0.1,0.1,0.1v0.1h-0.7V162
			c0.1,0,0.1,0,0.2-0.1s0.1-0.2,0.1-0.2l0.9-2.1c0-0.1,0.1-0.2,0.1-0.2c0-0.1,0-0.1-0.1-0.1v-0.1h0.8v0.1c-0.1,0-0.1,0.1-0.1,0.1
			c0,0.1,0.1,0.2,0.1,0.3l0.9,2c0,0.1,0.1,0.2,0.2,0.3c0,0,0.1,0.1,0.2,0.1v0.1h-0.7V162c0.1,0,0.1-0.1,0.1-0.1c0-0.1,0-0.1-0.1-0.2
			L321.2,161.3z"/>
		<path class="st3" d="M325.4,159.5l-0.3,0.5H325v-0.1c0,0,0-0.1-0.1-0.1c-0.3-0.2-0.6-0.3-1-0.3c-0.3,0-0.6,0.1-0.9,0.3
			s-0.4,0.5-0.4,0.9s0.2,0.7,0.4,0.9c0.2,0.2,0.5,0.3,0.8,0.3s0.7-0.1,1-0.3c0.1-0.1,0.2-0.1,0.2-0.2v-0.1h0.1l0.4,0.5h-0.1
			c-0.1-0.1-0.1-0.1-0.1-0.1h-0.1c-0.2,0.2-0.4,0.3-0.6,0.4c-0.2,0.1-0.5,0.1-0.7,0.1c-0.4,0-0.8-0.1-1.1-0.4
			c-0.2-0.1-0.3-0.3-0.4-0.4c-0.1-0.2-0.2-0.5-0.2-0.7c0-0.4,0.2-0.9,0.5-1.1c0.3-0.2,0.7-0.4,1.1-0.4s0.8,0.1,1.2,0.3h0.1
			c0,0,0.1,0,0.1-0.1L325.4,159.5"/>
		<path class="st3" d="M326.2,161.8v-2.3c0-0.1,0-0.1,0-0.2l-0.1-0.1v-0.1h0.7v0.1c0,0-0.1,0-0.1,0.1s0,0.1,0,0.2v2.3v0.1l0.1,0.1
			v0.1H326V162c0,0,0.1,0,0.1-0.1C326.2,161.9,326.2,161.9,326.2,161.8"/>
		<path class="st3" d="M329,159.5c-0.4,0-0.7,0.1-1,0.4c-0.4,0.4-0.4,1.2,0,1.6c0.3,0.3,0.6,0.4,1,0.4s0.7-0.1,1-0.4
			c0.2-0.2,0.3-0.5,0.3-0.8s-0.1-0.6-0.3-0.8C329.7,159.6,329.3,159.5,329,159.5 M329,159.2c0.4,0,0.9,0.1,1.2,0.4
			c0.3,0.3,0.5,0.7,0.5,1.1c0,0.3-0.1,0.6-0.2,0.8c-0.3,0.5-0.9,0.7-1.5,0.7c-0.4,0-0.9-0.1-1.2-0.4c-0.3-0.3-0.5-0.7-0.5-1.1
			c0-0.3,0.1-0.6,0.2-0.8c0.2-0.3,0.4-0.4,0.7-0.5C328.5,159.2,328.7,159.2,329,159.2"/>
		<path class="st3" d="M331.7,159.7v2.1c0,0.1,0,0.1,0,0.1l0.1,0.1v0.1h-0.6V162c0,0,0.1,0,0.1-0.1v-0.1v-2.3c0-0.1,0-0.1,0-0.2
			l-0.1-0.1v-0.1h0.9v0.1c-0.1,0-0.1,0.1-0.1,0.1c0,0.1,0,0.1,0.1,0.2l1.7,1.9v-2c0,0,0-0.1,0-0.2l-0.1-0.1V159h0.6v0.1
			c-0.1,0-0.1,0-0.1,0.1c0,0,0,0.1,0,0.2v2.3c0,0.1,0,0.1,0,0.1l0.1,0.1v0.1h-0.7l0,0c0.1,0,0.1-0.1,0.1-0.1s0-0.1-0.1-0.2
			L331.7,159.7"/>
		<path class="st3" d="M335.4,160.8v1.1h1.8c0.1,0,0.1,0,0.2,0l0.1-0.1h0.1v0.6h-0.1c0,0,0-0.1-0.1-0.1s-0.1,0-0.2,0h-2.3V162
			c0.1,0,0.1,0,0.1-0.1v-0.1v-2.3c0-0.1,0-0.1,0-0.2l-0.1-0.1v-0.1h2.3c0.1,0,0.1,0,0.2,0c0,0,0-0.1,0.1-0.1h0.1v0.6h-0.1
			c0-0.1,0-0.1-0.1-0.1s-0.1,0-0.2,0h-1.7v1h1.1c0,0,0.1,0,0.2,0l0.1-0.1h0.1v0.6h-0.1c0-0.1,0-0.1-0.1-0.1c0,0-0.1,0-0.2,0
			L335.4,160.8"/>
		<path class="st3" d="M340.6,159.4l-0.3,0.5h-0.1v-0.1c0,0-0.1-0.1-0.2-0.1c-0.3-0.1-0.6-0.2-0.9-0.2c-0.2,0-0.5,0-0.7,0.1
			s-0.3,0.2-0.3,0.4c0,0.1,0,0.2,0.1,0.2c0,0.1,0.1,0.1,0.2,0.1s0.2,0,0.3,0.1h0.6c0.2,0,0.4,0,0.6,0c0.1,0,0.2,0.1,0.3,0.1
			c0.1,0.1,0.2,0.1,0.2,0.2c0.1,0.1,0.1,0.2,0.1,0.3c0,0.3-0.1,0.5-0.3,0.6c-0.3,0.2-0.7,0.3-1,0.3c-0.2,0-0.4,0-0.7-0.1
			c-0.2-0.1-0.4-0.1-0.6-0.3h0.1c0,0-0.1,0-0.1,0.1h-0.1l0.3-0.5h0.1l0,0c0,0,0,0,0,0.1c0,0,0.1,0.1,0.3,0.2
			c0.3,0.2,0.6,0.2,0.9,0.2s0.5,0,0.7-0.2c0.1,0,0.2-0.1,0.2-0.2c0.1-0.1,0.1-0.2,0.1-0.3s0-0.2-0.1-0.2c0-0.1-0.1-0.1-0.2-0.1
			l-0.2-0.1h-0.5c-0.3,0-0.5,0-0.6,0s-0.2,0-0.3-0.1c-0.1,0-0.2-0.1-0.3-0.2c-0.1-0.1-0.1-0.3-0.1-0.4c0-0.3,0.1-0.5,0.4-0.6
			c0.3-0.2,0.6-0.2,1-0.2s0.7,0.1,1.1,0.2h0.1C340.5,159.5,340.6,159.5,340.6,159.4L340.6,159.4"/>
		<path class="st3" d="M346.2,158.9l-0.4,0.6h-0.1c0-0.1,0-0.1,0-0.1s-0.1-0.2-0.3-0.3c-0.3-0.1-0.6-0.2-1-0.2s-0.8,0.1-1.2,0.4
			c-0.3,0.3-0.5,0.6-0.4,1c0,0.4,0.2,0.8,0.5,1c0.3,0.3,0.7,0.4,1.1,0.4s0.8-0.1,1.1-0.4c0.1-0.1,0.2-0.2,0.2-0.2V161h0.1l0.5,0.5
			l-0.1,0.1c-0.1,0-0.1-0.1-0.1-0.1s-0.1,0-0.1,0.1c-0.2,0.1-0.3,0.2-0.4,0.3s-0.2,0.1-0.3,0.1c-0.3,0.1-0.5,0.1-0.8,0.1
			c-0.5,0-1-0.1-1.5-0.5c-0.7-0.6-0.8-1.7-0.2-2.4c0.4-0.5,1-0.8,1.7-0.7c0.5,0,1,0.1,1.5,0.4L346.2,158.9
			C346,158.9,346.1,158.9,346.2,158.9L346.2,158.9"/>
		<path class="st3" d="M347,161.8v-2.3c0-0.1,0-0.1,0-0.2l-0.1-0.1v-0.1h0.7v0.1c0,0-0.1,0-0.1,0.1c0,0,0,0.1,0,0.2v2.3v0.1l0.1,0.1
			v0.1h-0.7V162C347,162,347,162,347,161.8C347,161.9,347,161.9,347,161.8"/>
		<path class="st3" d="M348.7,160.8v1.1h1.8c0.1,0,0.1,0,0.1,0l0.1-0.1h0.1v0.6h-0.1c0,0,0-0.1-0.1-0.1h-0.1h-2.3V162
			c0,0,0.1,0,0.1-0.1v-0.1v-2.3c0-0.1,0-0.1,0-0.2l-0.1-0.1v-0.1h2.3c0.1,0,0.1,0,0.2,0c0,0,0-0.1,0.1-0.1h0.1v0.6h-0.1
			c0-0.1,0-0.1-0.1-0.1s-0.1,0-0.2,0h-1.7v1h1.1h0.1l0.1-0.1h0.1v0.6H350c0-0.1,0-0.1-0.1-0.1h-0.1L348.7,160.8"/>
		<path class="st3" d="M351.7,159.7v2.1c0,0.1,0,0.1,0,0.1l0.1,0.1v0.1h-0.6V162c0.1,0,0.1,0,0.1-0.1v-0.1v-2.3c0,0,0-0.1,0-0.2
			l-0.1-0.1v-0.1h0.9v0.1c-0.1,0-0.1,0.1-0.1,0.1c0,0.1,0,0.1,0.1,0.2l1.7,1.9v-2c0-0.1,0-0.1,0-0.2l-0.1-0.1V159h0.6v0.1
			c-0.1,0-0.1,0-0.1,0.1c0,0,0,0.1,0,0.2v2.3c0,0.1,0,0.1,0,0.1l0.1,0.1v0.1h-0.7l0,0c0.1,0,0.1-0.1,0.1-0.1s0-0.1-0.1-0.2
			L351.7,159.7"/>
		<path class="st3" d="M356.2,159.5v2.3v0.1l0.1,0.1v0.1h-0.7V162c0,0,0.1,0,0.1-0.1v-0.1v-2.3h-0.9c-0.1,0-0.1,0-0.2,0l-0.1,0.1
			h-0.1V159h0.1c0,0,0,0.1,0.1,0.1c0,0,0.1,0,0.2,0h2.2c0.1,0,0.1,0,0.2,0l0.1-0.1h0.1v0.6h-0.1c0,0,0-0.1-0.1-0.1h-0.1L356.2,159.5
			"/>
		<path class="st3" d="M358.7,158.2L358.7,158.2c-0.1,0.1-0.1,0.1-0.1,0.1l-0.3,0.4l0,0c0,0,0,0,0.1,0l0,0v0.1H358v-0.1h0.1
			c0,0,0,0,0.1-0.1l0.2-0.4l0,0c0,0,0-0.1-0.1-0.1l0,0V158L358.7,158.2 M357.9,161.9v-2.3c0-0.1,0-0.1,0-0.2l-0.1-0.1v-0.1h0.7v0.1
			c0,0-0.1,0-0.1,0.1c0,0,0,0.1,0,0.2v2.3v0.1l0.1,0.1v0.1h-0.7v-0.1c0,0,0.1,0,0.1-0.1V161.9"/>
		<path class="st3" d="M359.6,160.8v1.1v0.1l0.1,0.1v0.1h-0.6V162c0,0,0.1,0,0.1-0.1v-0.1v-2.3c0-0.1,0-0.1,0-0.2l-0.1-0.1v-0.1h2.3
			c0.1,0,0.1,0,0.1,0l0.1-0.1h0.1v0.6h-0.1c0-0.1,0-0.1-0.1-0.1s-0.1,0-0.2,0h-1.8v1h1.2h0.1l0.1-0.1h0.1v0.6h0c0-0.1,0-0.1-0.1-0.1
			h-0.1L359.6,160.8"/>
		<path class="st3" d="M362.3,161.8v-2.3c0,0,0-0.1,0-0.2l-0.1-0.1v-0.1h0.7v0.1c-0.1,0-0.1,0-0.1,0.1s0,0.1,0,0.2v2.3v0.1l0.1,0.1
			v0.1h-0.7V162C362.3,162,362.3,162,362.3,161.8C362.3,161.9,362.3,161.9,362.3,161.8"/>
		<path class="st3" d="M366.5,159.5l-0.3,0.5h-0.1v-0.1c0,0,0-0.1-0.1-0.1c-0.3-0.2-0.6-0.3-1-0.3c-0.3,0-0.6,0.1-0.9,0.3
			s-0.4,0.5-0.4,0.9s0.2,0.7,0.5,0.9c0.2,0.2,0.5,0.3,0.8,0.3s0.7-0.1,1-0.3c0.1-0.1,0.2-0.1,0.2-0.2v-0.1h0.1l0.4,0.5h-0.1
			l-0.1-0.1h-0.1c-0.2,0.2-0.4,0.3-0.6,0.4c-0.2,0.1-0.5,0.1-0.7,0.1c-0.4,0-0.8-0.1-1.1-0.4c-0.2-0.1-0.3-0.3-0.4-0.4
			c-0.1-0.2-0.2-0.5-0.2-0.7c0-0.4,0.2-0.9,0.5-1.1c0.3-0.2,0.7-0.4,1.1-0.4s0.8,0.1,1.2,0.3h0.1c0,0,0.1,0,0.1-0.1L366.5,159.5"/>
		<path class="st3" d="M369,161l-0.6-1.4l-0.6,1.4H369 M369.1,161.3h-1.5l-0.2,0.5v0.1c0,0.1,0,0.1,0.1,0.1v0.1h-0.7V162
			c0.1,0,0.1,0,0.2-0.1s0.1-0.2,0.1-0.2l0.9-2.1c0-0.1,0.1-0.2,0.1-0.2c0-0.1,0-0.1-0.1-0.1v-0.1h0.8v0.1c-0.1,0-0.1,0.1-0.1,0.1
			c0,0.1,0.1,0.2,0.1,0.3l0.9,2c0,0.1,0.1,0.2,0.2,0.3c0,0.1,0.1,0.1,0.2,0.1v0.1h-0.7V162c0.1,0,0.1-0.1,0.1-0.1s0-0.1-0.1-0.2
			L369.1,161.3z"/>
		<path class="st3" d="M373,159.4l-0.3,0.5h-0.1v-0.1c0,0-0.1-0.1-0.2-0.1c-0.3-0.1-0.6-0.2-0.9-0.2c-0.2,0-0.5,0-0.7,0.1
			s-0.3,0.2-0.3,0.4c0,0.1,0,0.2,0.1,0.2c0,0.1,0.1,0.1,0.2,0.1s0.2,0,0.3,0.1h0.6c0.2,0,0.4,0,0.6,0c0.1,0,0.2,0.1,0.3,0.1
			c0.1,0.1,0.2,0.1,0.2,0.2c0.1,0.1,0.1,0.2,0.1,0.3c0,0.3-0.1,0.5-0.3,0.6c-0.3,0.2-0.7,0.3-1,0.3c-0.2,0-0.4,0-0.7-0.1
			c-0.2-0.1-0.4-0.1-0.6-0.3h-0.1c0,0-0.1,0-0.1,0.1H370l0.3-0.5h0.1l0,0c0,0,0,0,0,0.1c0,0,0.1,0.1,0.3,0.2
			c0.3,0.2,0.6,0.2,0.9,0.2s0.5,0,0.7-0.2c0.1,0,0.2-0.1,0.2-0.2c0.1-0.1,0.1-0.2,0.1-0.3s0-0.2-0.1-0.2c0-0.1-0.1-0.1-0.2-0.1
			s-0.2,0-0.2-0.1h-0.5c-0.3,0-0.5,0-0.6,0s-0.2,0-0.3-0.1c-0.1,0-0.2-0.1-0.3-0.2c-0.1-0.1-0.1-0.3-0.1-0.4c0-0.3,0.1-0.5,0.4-0.6
			c0.3-0.2,0.6-0.2,1-0.2s0.7,0.1,1.1,0.2h0.1C372.9,159.5,372.9,159.5,373,159.4L373,159.4"/>
		<path class="st4" d="M248.9,151.4c0,0,0.4,0,1.7-0.7s1.2,2,1.2,2c1.3,0.5,2.7,0.6,4,0.3c0.2-0.2-0.8-0.7-1.1-1.3s-0.3-1.2,0-1.8
			c0.8-0.9,2.9-0.3,2.9-0.3c0,0.5,0,1-0.1,1.5c-0.1-0.1-1.6-0.2-1.7,0.1c0.4,0.2,0.8,0.5,1,0.9c0.4,0.9-0.3,2.3-0.3,2.3
			c-2.8,1.6-5.7-0.1-5.8-0.2c-0.2-0.3-0.3-0.6-0.3-0.9c-3.4,1.4-6.9-0.2-6.9-0.2c0,0.4-0.1,0.7-0.3,1c-3.6,1.7-5.9,0.2-5.9,0.2
			c-0.8-1-0.6-2.5,0.4-3.3l0.1-0.1c-0.6-0.1-1.2-0.1-1.7-0.1v-1.4c3.2-0.7,3.1,0.5,3.1,1.6c-0.1,0.7-0.5,1.4-1.1,1.7
			c1.3,0.3,2.7,0.2,4-0.2c0,0,0-0.3,0-1.6s2.7,0.1,2.7,0.1c0.6-0.4,0.6-2.9,0.6-2.9c-1.3-1.5,0.1-2.2,0.1-2.2c0.1-1-0.5-1.9-1.5-2.1
			h-0.1c0.4,1.9-0.1,2.1-0.4,2.6c-0.3,0.5-2.6,1.6-2.5,1.9c0.1,0.3,1.3-0.7,1.3-0.7c0.2,0.3,0.4,0.7,0.4,1.1c-0.5,0.9-2.7,1-2.6-0.6
			c0.1-1.7,1.5-1.5,2.5-2.3c1.1-0.9-0.3-1.9-0.3-1.9c-0.3,0.1-0.5,0.2-0.7,0.3c0.1,0.3,0.3,0.6,0.5,0.9c-0.4,0.3-0.8,0.5-1.2,0.7
			c-0.2-0.1-0.4-0.6-0.4-0.6l-0.3,0.3c0.7,2.5-1.6,2.5-1.6,2.5l0.1-0.6c-0.5,0.1-0.9,0.2-1.4,0.1c0-0.7,0.3-1.3,0.8-1.7
			c-0.1-0.1-0.2-0.2-0.3-0.3c0.5-0.5,1.3-0.7,2-0.3l0.2-0.4c-0.6-1.1,0.4-0.6,0.4-0.6c0-0.5,0.3-0.9,0.7-1.2c0-0.2-0.4-0.3-0.4-0.3
			c-1.6,1.3-2.4-0.7-2.4-0.7c-0.3,0-0.6-0.1-0.8-0.2c0.1-0.2,0.3-0.4,0.5-0.5c-0.2-0.3-0.3-0.6-0.4-0.9c0.3-0.1,0.7-0.1,1-0.1
			c0-0.2,0.1-0.4,0.3-0.6c0.3,0.3,0.5,0.5,0.7,0.8c0.2,0,0.4,0,0.6,0.1c0-0.2,0.1-0.3,0.2-0.5c0-0.1-0.5-0.4-0.5-0.4l0.1-0.2
			c0.2,0.1,0.5,0.1,0.7,0.2c1.7-1.1,2.4,0.1,2.4,0.1c0.2,1.5,0.6,1.1,0.6,1.1c0-0.3,0-0.6-0.1-0.8h0.5c0.2,0.5,0.5,0.9,0.8,1.2
			c-0.1-0.8,0.2-1.6,0.9-2.1c0-1.4-0.9-2.7-2.2-3.2c-0.1,0.5-0.3,1.9-0.2,1.9c0.2,0.1,0.7-0.7,0.7-0.7c0.4,0.3,0.6,0.7,0.7,1.2
			c-2.2,1.3-2.9-0.7-2.9-0.7c-0.1,0-1.4,0.2-1.4,0.2c-0.2-0.2,0.2-1.4,0.2-1.4c-0.5,0-1,0.3-1.3,0.7c0.3,1.8-2.2,2.2-2.2,2.2
			c0.1-0.1-0.3-0.5-0.3-0.5c-0.5,0.1-1,0.2-1.5,0.2c0-0.6,0.3-1.1,0.8-1.4c-0.1-0.2-0.2-0.5-0.3-0.8c1.7-0.9,2.8-0.2,2.8-0.2
			c0.9-0.7,2-1.2,3.1-1.4c0-0.2,0.1-0.3,0.2-0.5c0.1-0.5-1.7-0.5-1.7-0.5c0.1-0.1-0.2-0.9-0.2-0.9c-0.1,0-0.3,0.1-0.4,0.2
			c-0.7,1-0.8,0.1-0.8,0.1c-0.2,0-0.6,0.3-0.6,0.3c-0.4,0.9-2,0.9-2,0.9c0.1-0.1,0.1-0.3,0-0.5c-0.4-0.2-0.9-0.4-1.2-0.7
			c0.4-0.3,0.8-0.5,1.2-0.7c-0.3-0.2-0.2-1.2-0.2-1.2c0.4,0.2,0.8,0.3,1.2,0.4c0.6,0.1,1,0.5,1.2,1c0.3,0.1,1.5-0.6,1.5-0.6
			c-0.2-0.6-0.7-1.1-1.3-1.2c-2.3,1-2.6-1-2.6-1l-0.7-0.3c0.2-0.2,0.5-0.4,0.8-0.5c-0.2-0.1-0.2-0.9-0.2-0.9c0.4,0,0.8,0,1.1,0.1
			c-0.1-0.2,0.2-0.7,0.2-0.7l0.5,1c0,0,1.4-0.4,1.2,1.5c0.2,0.2,0.4,0.3,0.6,0.4c0,0,0.2-0.7,0.1-1c-0.2-0.4-0.4-0.7-0.7-1.1
			c0.3,0.1,0.5,0.2,0.7,0.3c0,0,0.4-0.4,0.4-0.6c0,0,0.9,1,0.9,1.6c-0.1,0.6-0.8,1-0.9,1.1l0.2,0.2c0,0,2.4-1,3.4,1
			c0.1-0.3,0.1-0.7,0.1-1c0,0-1.3-0.1-0.6-1.8c0.3-0.7-0.1-1-0.1-1s1.1,0.2,1.3,1c0,0,0.6-0.5,0.4-1c0.7,0.4,1,1.2,0.7,1.9
			c-0.1,0.5-0.4,0.9-0.9,1c-0.3,1-0.2,2.2,0.4,3.1c0.4-0.3,0.7-0.6,0.9-1c0,0-0.7-1-0.2-1.7s0.9-0.5,1.1-0.7c0.3-0.3,0.5-0.6,0.7-1
			c0,0,0.2,0.7,0.1,0.8c0.3-0.1,0.7-0.2,1-0.2c0,0.3-0.1,0.6-0.2,0.9c0,0,0.5,0.4,0.8,0.3c0,0-0.5,0.6-0.7,0.6
			c-0.2,1-1.2,1.7-2.2,1.5h-0.1c-0.3,0.3-0.6,0.6-0.8,1c0.3,0.4,0.6,0.8,0.8,1.3c0,0,1-0.3,1.3-0.1c0,0,1.7-0.7,1.8-3.8l0.5-0.1
			c-0.1-0.5-0.1-1,0-1.6c0,0-1.8-1.9-0.6-2.5c0.2,0.3,0.4,0.5,0.7,0.7c0,0,0.6-0.2,0.7-0.6c0.4,0.5,0.6,1.2,0.5,1.9
			c0,0-0.8,1.1-0.6,1.7c0.6-0.6,1.4-0.9,2.2-0.7c-0.1-0.7,0.1-1.4,0.5-2c0.1,0.3,0.2,0.6,0.5,0.9c0.3,0.2,0.4,0.6,0.2,0.9l0.4-0.2
			c0,0-0.5-1.6,0.8-1.9c0.1-0.4,0.3-0.7,0.5-1.1l0.5,0.6c0,0,0.6-0.5,0.8-0.5c0.1,0.3,0.2,0.7,0.2,1c0.3,0,0.5,0,0.8,0
			c-0.2,0.4-0.5,0.8-0.8,1.1c0,0,0.4,1.8-2.3,1.3l-0.8,0.7c0.1,0.2,0.2,0.3,0.3,0.5c0.6-0.2,1.2-0.5,1.8-0.8c0,0.4,0,0.8-0.1,1.2
			c0.4,0.1,0.8,0.2,1.2,0.2c0,0-0.4,1.1-1.2,1.2c0,0,0.3,0.5-0.4,0.4c-0.3,0.1-0.5,0.2-0.7,0.4c0,0-0.4-0.6-0.6-0.6
			c0,0-0.9,0.3-1.2,0.2c0,0,0.2-0.5,0-0.7l-0.1-0.1l0.1,0.1c0,0-1.2,0.1-1.2,0.6c0,0,0.2,1,0.2,1.1c0.4,0.1,0.7,0.2,1.1,0.3v1.3
			l-1-0.3c0,0-0.3,1.7-1.5,1.5c-1.1-0.2-1.4-0.7-0.4-2.3c0,0-1.9,0.2-1.9,2.8c0,0,0.1,0.2,0.5,0.1c0,0.3-0.1,0.6-0.2,0.9
			c0.5-0.4,1.2-0.5,1.8-0.4c0.4-0.5,1-0.7,1.6-0.4c0,0,0.5,0,0.4-1.3h0.5v0.7c0.3-0.2,0.7-0.4,0.9-0.6c-0.3-0.6,0.1-1.4,0.7-1.6l0,0
			c0,0,0.4-0.6,0.6-0.7c0.1,0.4,0.2,0.7,0.2,1.1c0.4-0.1,0.8-0.1,1.2-0.1c-0.1,0.3-0.2,0.7-0.3,1c0.3,0.1,0.5,0.3,0.7,0.5
			c0,0-1.8,1-2.7,0.6c-0.5,0.1-0.9,0.3-1.3,0.6c0.4,0.2,0.9,0.1,1.3-0.2v0.5h0.4c0,0,1.9-1.3,2.7,0.4c0.2,0.1,0.5,0.2,0.8,0.1
			c0,0-0.1,0.6-0.4,0.7c0.2,0.3,0.3,0.6,0.4,1c-0.3,0.1-0.6,0.1-0.9,0c0,0.3,0,0.6-0.1,0.9c0,0-0.7-0.5-0.7-0.8
			c-0.8,0.2-1.7-0.4-1.8-1.2c0-0.1,0-0.2,0-0.3l-0.4-0.1c-0.2,0.2-0.5,0.3-0.8,0.5c0.3,0.1,0.5,0.3,0.7,0.5c0,0-0.3,0.8-0.5,0.8
			c0,0-2.1-1-2.6-0.3c0.4,0.3,0.9,0.5,1.3,0.9c0,0,2.2-0.5,1.7,1.3l0.1,0.2c0,0,1.1,0.1,1.5,2c0,0-1.3,0.3-1.6-1.5
			c-0.1,0-0.2,0.1-0.2,0.2c0,0,0.1,0.3,0.1,0.5c0,0,1.5,1.5-0.5,3.1c0,0-0.7-0.8-0.7-1.2c0,0-0.9-0.3-1.3,0.2c0,0-0.1-1.7,1.9-1.8
			v-0.4c-0.3,0.2-0.6,0.4-1,0.5c-0.5-0.1-1-0.4-1.2-0.8c0,0,2-0.7,1.8-0.9s-2.4,1.1-3.9,0.3c0,0-0.2,0.3-0.4,0.3
			c-0.4,0.8-0.5,1.7-0.2,2.5c0,0,1.5,1.1,0.4,2.2C248.5,149.7,248.6,151.2,248.9,151.4 M240.3,132c0.3,1,1.3,0,1.7,0.3
			c1.9,1.6-0.6,3.4,0.1,5.4c0.1,0.4,0.4,0.7,0.8,0.9c0.5,0.1,1,0,1.4-0.2c0.1-0.2-0.2-0.4-0.3-0.6c-0.2,0.1-0.3,0.3-0.4,0.5
			c-0.1,0.2-0.2,0.3-0.4,0.2c-0.1,0-0.2-0.1-0.2-0.3c-0.2-2,1.4-4.4-0.4-6.1C241.9,131.7,241,131.7,240.3,132 M251.4,131.9
			c-3.3,1.5,0.3,4.4-1,6.8c0.3,0.1,0.7-0.1,0.8-0.4c0.7-1.5,0.1-3.2-0.3-4.7c-0.2-0.4,0-0.9,0.3-1.2c0.4-0.3,0.9-0.2,1.1,0.2
			c0.1-0.1,0.4-0.4,0.4-0.5C252.4,131.9,251.9,131.8,251.4,131.9 M251.3,132.7c-0.2,0.3-0.2,0.7,0,1c0.3-0.3,0.6-0.6,0.9-0.9
			c-0.1-0.3-0.4-0.4-0.7-0.3C251.4,132.6,251.4,132.6,251.3,132.7 M241.3,132.7c0.2,0.3,0.7,0.4,1,0.5l-0.1-0.2
			C241.9,132.5,241.7,132.4,241.3,132.7 M253.5,132.7c-0.2,0.2-0.4,0.4-0.5,0.7c0.1,0.5,0.1,1,0.1,1.5c0.2,0.1,0.5,0,0.7-0.1
			C254,134.2,254.1,133.2,253.5,132.7 M252.8,133.7l-0.2,0.3c0.1,0,0.2,0,0.3,0L252.8,133.7z M250,135l-0.1-0.4l-0.1,0.4H250z
			 M252,136.5l-0.1,0.3c0,0.6,0.6,0.5,0.8,0.6v-0.6C252.5,136.5,252.3,136.6,252,136.5 M249.7,138.1c0.1,0.1,0.1,0.5,0.3,0.4
			c0.3-0.4,0.5-0.9,0.3-1.4C250.1,137.3,249.8,137.7,249.7,138.1 M241.5,139.9c-0.4,0.2-1.1,0.4-1.1,0.9c0.2,0.4,0.5,0,0.7-0.2
			c0.5-0.5,1.1-0.1,1.6,0.1c0.1-0.2-0.1-0.4-0.2-0.6C242.2,139.8,241.8,139.9,241.5,139.9 M253.3,140.2c-0.9,0.4-1.6-0.7-2.4-0.2
			c0.7,0.3,1.5,1,2.4,0.7c0.2-0.1,0.6-0.3,0.5-0.6h-0.2L253.3,140.2z M245.6,140.2c-0.2,0.1-0.2,0.3-0.2,0.4
			c0.1,0.1,0.2,0.4,0.3,0.3C245.7,140.8,245.7,140.5,245.6,140.2 M249.3,140.6c0.6,0.1,1.1,0.6,1.2,1.3c0.2-0.1,0.4-0.1,0.5-0.2
			c0-0.3-0.1-0.7-0.3-0.9C250.4,140.4,249.7,140.2,249.3,140.6 M248.8,141c-0.2,0.2-0.5,0.2-0.4,0.6c0.4-0.1,0.7-0.3,1-0.6
			C249.2,140.9,249,140.9,248.8,141 M240.9,141.2c-0.1,0.1-0.1,0.4,0,0.5c-0.3,0.6,0.2,1,0.6,1.3c0.5,0.2,1.1,0.1,1.5-0.2
			c-0.1-0.3-0.2-0.5-0.5-0.7c-0.5,0.6-1.1-0.1-1.5-0.3c0.1,0,0.1-0.2,0.2-0.1c0.1-0.1,0.5-0.2,0.4-0.4
			C241.5,141,241.2,141,240.9,141.2C241,141.2,240.9,141.2,240.9,141.2 M251.8,141.1c-0.2,0.1-0.4,0-0.4,0.3
			c0.6,0.2,1.1,0.3,1.6,0.6c0.2,0.1,0.7,0.3,0.7-0.2C253.1,141.4,252.5,141.2,251.8,141.1 M245.2,141.2c-0.1,0.4,0,0.7,0.1,1.1
			c0.6,1.3,1.9,1.5,3,2c0.1-0.1,0.1-0.2,0.1-0.3C248,142.5,246.1,142.2,245.2,141.2 M241.7,141.8c0.1,0.1,0.2,0.2,0.4,0.2
			c0.2-0.1,0.2-0.1,0.2-0.2C242.2,141.5,241.8,141.5,241.7,141.8 M248.6,143.2c-0.1,0.3,0.2,0.3,0.3,0.3c0.7,0.2,1.5,0.1,2.1-0.3
			C250.3,142.8,249.4,142.8,248.6,143.2 M252.6,143.3c-1.3,0.3-2.5,1-3.9,0.6c-0.1,0.2,0,0.4,0.2,0.6c1.4,0.6,2.7-0.2,4-0.5
			c0.2,0,0.3,0.2,0.2,0.3c-0.3,0.6-1.1,0.8-1.7,1c0,0.1,0.1,0.2,0.1,0.3c0.5,0.4,1-0.2,1.4-0.5c0.4-0.4,0.8-0.8,0.7-1.3
			C253.5,143.3,253,143.3,252.6,143.3 M240.9,143.7c-0.3,0.4-0.5,0.8-0.4,1.3c0.1,0.2,0.2,0.5,0.4,0.6c1.1-0.2,0-1,0.2-1.6
			c0-0.3,0.2-0.5,0.5-0.5C241.3,143.4,241.1,143.5,240.9,143.7 M242.9,144c-0.1,0.3,0.2,0.6,0.3,0.9c0.4,1.6-1.7,1.8-2.5,2.6
			c-0.3,0.3-0.5,0.8-0.4,1.2c0.1,0.3,0.4,0.6,0.8,0.6c0.5,0,0.9-0.2,1.2-0.5c0.1-0.2,0-0.4-0.2-0.5c-0.3,0.3-0.8,0.5-1.2,0.5
			c-0.1,0-0.3-0.1-0.3-0.3c0.5-1,1.8-1.1,2.6-2c0.4-0.5,0.5-1.1,0.4-1.7C243.4,144.5,243.3,144,242.9,144 M245.4,146.6l-0.1,0.1
			l0.1,0.1V146.6z M245.1,147.1v0.4c0.4,1.1,1.8,0.8,2.7,1.1c0.3,0.2,0.5,0.4,0.7,0.6C248.6,147,246.2,148,245.1,147.1 M236.4,149.9
			c0,0.3,0,0.6,0,0.9c0.9-0.1,1.7,0,2.5,0.4l-0.1-0.9C238.3,149.5,237.2,149.7,236.4,149.9 M255.4,149.9c-0.6,0.1-0.5,1-0.4,1.4
			c0.7-0.4,1.6-0.6,2.4-0.5c0-0.3,0.1-0.6,0-0.9C256.7,149.8,256,149.8,255.4,149.9 M242.5,151.1c0,0.2,0.5,0.5,0.8,1
			c0.1,0.2,0.2,0.5,0.2,0.8c1.9,0.9,5,1.1,6.9,0.2c0-0.8,0.2-1.4,0.9-1.7c0.1-0.1-0.1-0.3-0.2-0.3c-1.3,0.5-2.6,1.2-4.1,1.2
			C245.2,152.3,244,151.1,242.5,151.1 M238.1,151.2c-0.4,0.4-1,0.7-1,1.5c0,0.2,0.7,0.2,0.7,0.2c0.4-0.3,0.8-0.5,1-1.2
			C238.8,151.4,238.3,151.2,238.1,151.2 M242.3,151.5v1.1c0.3-0.1,0.7-0.2,0.7-0.3C243.1,152.2,242.6,151.6,242.3,151.5
			 M250.9,152.4c0.2,0.1,0.3,0.2,0.5,0.2s0-0.8,0.1-1C251.1,151.7,250.8,152,250.9,152.4 M237.1,153.1c0,0.5,0.2,0.9,0.5,1.2
			c1.7,0.6,3.5,0.5,5.1-0.2c0.5-0.2,0.4-0.6,0.4-1.4C241.2,153.6,239.1,153.7,237.1,153.1 M250.7,152.8c-0.1,0.5,0,1,0.3,1.3
			c1.6,1,3.7,1,5.4,0.1c0.1-0.3,0.2-0.7,0.3-1.1C255.1,153.9,252.2,153.4,250.7,152.8 M256.3,152.8c0.1,0,0.3-0.1,0.4-0.1
			c0.3-0.6-1.1-1.4-1.1-1.4l-0.4,0.2C254.8,151.7,256.3,152.8,256.3,152.8"/>
		<path class="st5" d="M294,151.2c-0.1,0-0.2,0-0.3,0h-0.3c-0.5,0.1-1,0.3-1.4,0.6c-0.7,0.4-1.7,0.8-2.8,1.3
			c-1.2,0.5-2.5,0.9-3.8,1.3c-1.4,0.3-2.9,0.5-4.4,0.5c-2,0-4-0.2-5.9-0.8c-1.8-0.5-3.5-1.3-5-2.4c-1.4-1.1-2.6-2.5-3.4-4
			c-2.7-5.3-1.3-11.8,3.4-15.4c1.5-1.1,3.2-2,5-2.5c1.9-0.6,3.9-0.8,5.9-0.8c1.5,0,3,0.1,4.5,0.4c1.3,0.2,2.5,0.5,3.5,0.8
			c0.8,0.2,1.6,0.5,2.4,0.8c0.3,0.2,0.7,0.3,1.1,0.4c0.2,0,0.3-0.1,0.4-0.2c0.1-0.2,0.2-0.3,0.3-0.4l0.7,0.6l-3.8,5.9l-0.5-0.3
			c0-0.1,0-0.2,0-0.3s0-0.2-0.1-0.3c-0.2-0.5-0.5-0.9-1-1.1c-0.7-0.4-1.4-0.7-2.2-1c-0.9-0.3-1.8-0.5-2.7-0.7
			c-2.2-0.5-4.4-0.4-6.6,0.3c-1.2,0.4-2.3,0.9-3.3,1.7c-0.9,0.7-1.7,1.7-2.2,2.7c-1.1,2.3-1.1,5.1,0,7.4c0.5,1.1,1.3,2,2.2,2.7
			c1,0.8,2.1,1.3,3.3,1.7c1.3,0.4,2.6,0.6,3.9,0.6c1.1,0,2.2-0.1,3.2-0.4c1.1-0.2,2.1-0.5,3.1-0.9c0.8-0.3,1.6-0.7,2.4-1.3
			c0.6-0.5,0.9-0.9,0.9-1.3c0-0.2-0.1-0.4-0.2-0.6l0.7-0.4l3.2,5.1L294,151.2"/>
		<path class="st5" d="M302,146.6l0.5,0.2c0,0.3,0.1,0.5,0.2,0.8c0.3,0.5,0.8,0.9,1.3,1.1c0.7,0.4,1.5,0.7,2.3,1
			c0.9,0.3,1.8,0.6,2.7,0.7c0.8,0.2,1.7,0.3,2.5,0.3c0.6,0,1.3,0,2.1-0.1c0.9-0.1,1.7-0.2,2.6-0.5c0.8-0.2,1.5-0.6,2.2-1.1
			c0.6-0.4,0.9-1.1,0.9-1.8s-0.3-1.3-0.8-1.6c-0.7-0.4-1.4-0.7-2.2-0.8c-1-0.2-2.1-0.3-3.2-0.3c-1.2-0.1-2.4-0.1-3.6-0.2
			c-1.2-0.1-2.4-0.3-3.6-0.5c-1.1-0.2-2.2-0.6-3.1-1.1s-1.7-1.3-2.2-2.2c-0.6-1.1-0.9-2.4-0.8-3.6c0-1,0.3-2,0.7-3
			c0.5-1,1.3-1.9,2.2-2.6c1.1-0.8,2.3-1.4,3.6-1.8c1.7-0.5,3.5-0.8,5.2-0.7c1.5,0,3,0.1,4.5,0.4c1.1,0.2,2.2,0.5,3.3,0.8
			c0.9,0.3,1.7,0.6,2.3,0.8c0.5,0.2,1,0.4,1.6,0.4c0.3,0,0.7-0.1,1-0.3l0.6,0.4l-3.3,6.1l-0.5-0.2c0-0.4-0.2-0.8-0.4-1.1
			c-0.3-0.5-0.8-0.8-1.3-1.1c-0.7-0.4-1.4-0.7-2.1-1c-0.9-0.3-1.7-0.6-2.6-0.7c-1.7-0.3-3.4-0.3-5-0.1c-0.7,0.1-1.4,0.3-2.1,0.5
			c-0.6,0.2-1.1,0.5-1.5,0.9c-0.4,0.3-0.6,0.9-0.6,1.4c0,0.7,0.3,1.4,0.8,1.7c0.7,0.4,1.4,0.7,2.2,0.9c1,0.2,2.1,0.3,3.1,0.4
			c1.2,0.1,2.4,0.1,3.6,0.2c1.2,0.1,2.4,0.3,3.6,0.5c1.1,0.2,2.2,0.6,3.2,1.2c0.9,0.5,1.7,1.3,2.2,2.2c0.6,1.1,0.9,2.3,0.8,3.5
			c0.1,1.5-0.4,3-1.3,4.1s-2,1.9-3.3,2.5c-1.4,0.6-2.8,1-4.3,1.2c-1.4,0.2-2.9,0.3-4.3,0.3c-1.5,0-3.1-0.1-4.6-0.3
			c-1.1-0.2-2.1-0.4-3.1-0.8c-0.7-0.2-1.3-0.5-2-0.8c-0.4-0.2-0.8-0.3-1.3-0.4c-0.3,0-0.5,0.2-0.6,0.4l-0.7-0.4L302,146.6"/>
		<path class="st5" d="M331.1,153.8c0.8,0,1.3-0.3,1.3-0.9v-22c0-0.6-0.4-0.9-1.3-0.9v-0.9h8v0.9c-0.8,0-1.3,0.3-1.3,0.9v22
			c0,0.6,0.4,0.9,1.3,0.9v0.9h-8V153.8"/>
		<path class="st5" d="M372.9,151.2c-0.1,0-0.2,0-0.3,0h-0.3c-0.5,0.1-1,0.3-1.4,0.6c-0.7,0.4-1.6,0.8-2.8,1.3
			c-1.2,0.5-2.5,0.9-3.8,1.3c-1.5,0.4-3,0.5-4.5,0.5c-2,0-3.9-0.2-5.8-0.8c-1.8-0.5-3.5-1.3-5-2.4c-1.4-1.1-2.6-2.5-3.4-4
			c-2.7-5.3-1.3-11.8,3.4-15.4c1.5-1.1,3.2-2,5-2.5c1.9-0.6,3.9-0.8,5.8-0.8c1.5,0,3,0.1,4.5,0.4c1.2,0.2,2.4,0.5,3.5,0.8
			c0.8,0.2,1.6,0.5,2.4,0.8c0.3,0.2,0.7,0.3,1.1,0.4c0.2,0,0.3-0.1,0.4-0.2c0.1-0.2,0.2-0.3,0.3-0.4l0.7,0.6l-3.8,5.9l-0.5-0.3
			c0-0.1,0-0.2,0-0.3s0-0.2-0.1-0.3c-0.1-0.3-0.4-0.7-1-1.1c-0.7-0.4-1.4-0.8-2.2-1c-0.9-0.3-1.8-0.5-2.7-0.7
			c-2.2-0.5-4.4-0.4-6.6,0.3c-1.2,0.4-2.3,0.9-3.2,1.7c-0.9,0.7-1.7,1.7-2.2,2.7c-1.8,3.5-0.8,7.7,2.2,10.1c1,0.8,2.1,1.3,3.2,1.7
			c1.3,0.4,2.6,0.6,3.9,0.6c1.1,0,2.2-0.1,3.2-0.4c1.1-0.2,2.1-0.5,3.1-0.9c0.8-0.3,1.6-0.7,2.4-1.3c0.6-0.5,0.9-0.9,0.9-1.3
			c0-0.2-0.1-0.4-0.2-0.6l0.7-0.4l3.2,5.1L372.9,151.2"/>
	</g>
	<g>
		<path class="st6" d="M827.6,119.7c0,4.5,0,9,0,13.5c0,0.6,0.1,0.8,0.8,0.8s1.3,0.1,2,0c0.6,0,0.8,0.3,0.8,0.8c0,1.1,0,1.1-1.2,1.1
			c-2.1,0-4.2,0-6.3,0c-1.2,0-1.4-0.2-1.3-1.3c0-0.5,0.3-0.6,0.7-0.7c0.6,0,1.3,0.2,1.7-0.2s0.2-1.1,0.2-1.7c0.1-5,0.2-10,0.3-14.9
			c0-0.9,0-0.9-0.9-1c-0.4,0-0.8-0.1-1.3-0.1c-0.6,0-0.9-0.2-0.9-0.9c0-1.5,0.1-1.2,1.2-1.2c1.4,0,2.8,0.1,4.1,0
			c0.8,0,1.2,0.2,1.5,0.9c1.6,3.6,3.3,7.2,5,10.8c0.7,1.5,1.4,3,2.1,4.4c0.1,0.2,0.2,0.4,0.4,0.6c0.4-0.3,0.5-0.8,0.6-1.1
			c2-4.8,4-9.7,6-14.5c0.6-1.5,0.4-1.2,1.8-1.2c1.7,0,3.4,0,5.1,0c0.6,0,0.8,0.2,0.7,0.7c0,0.1,0,0.2,0,0.3c0,1.5,0,1.2-1.2,1.3
			c-2,0.1-1.7,0-1.7,1.7c0,4.9,0,9.8,0,14.7c0,1.4,0,1.4,1.3,1.4c0.2,0,0.3,0,0.5,0c1.1,0,1.5,0.7,1.2,1.7c-0.1,0.4-0.5,0.3-0.7,0.3
			c-1.3,0-2.5,0-3.8,0c-1.2,0-2.4,0-3.6,0c-0.7,0-0.9-0.2-0.9-0.9c0-1,0-1.1,0.8-1.2c0.3,0,0.7,0,1,0c0.9,0,0.9,0,1-1
			c0.1-4.5,0.2-8.9,0.3-13.4c0-0.5,0.2-1.1-0.1-1.7c-0.5,0.3-0.5,0.8-0.7,1.2c-2.3,5.4-4.6,10.9-6.8,16.3c-0.2,0.6-0.5,1-1.2,0.9
			c-0.6,0-0.7-0.5-0.9-0.9c-2-4.3-4-8.6-5.9-12.9c-0.5-1-1-2.1-1.5-3.1C827.8,119.7,827.7,119.7,827.6,119.7z"/>
		<path class="st7" d="M792.5,84.9c-1.1,2.6-2.2,5.2-3.3,7.8c-1.4,3.3-2.8,6.6-4.2,9.9c-0.2,0.5-0.4,0.9-1,0.8c-0.6,0-0.8-0.3-1-0.7
			c-1.3-2.8-2.5-5.5-3.8-8.3c-1-2.3-2.1-4.6-3.2-6.8c-0.2-0.3-0.2-0.7-0.6-0.9c-0.3,0.4-0.2,0.8-0.2,1.2c0,4,0,8,0,12.1
			c0,1,0,1,1.1,1.1c0.5,0,1.1,0,1.6,0.1c0.3,0,0.7-0.1,0.8,0.4s0.2,1-0.1,1.5c-0.1,0.2-0.3,0.1-0.5,0.1c-2.4,0-4.9-0.1-7.3,0.1
			c-0.5,0-0.7-0.1-0.8-0.7c-0.1-1.2-0.1-1.3,1.1-1.4c1.4-0.1,1.4-0.1,1.4-1.5c0.1-5.1,0.2-10.1,0.3-15.2c0-1.1,0-1.1-1.2-1.2
			c-0.3,0-0.6,0-0.9,0c-0.9-0.1-0.9-0.1-0.9-1c0-1,0-1,1-1c1.5,0,2.9,0.1,4.4,0c0.8,0,1.2,0.3,1.5,1c2.3,4.9,4.6,9.9,6.8,14.8
			c0.2,0.4,0.3,0.8,0.7,1.1c0.9-2.1,1.7-4.2,2.6-6.3c1.3-3.2,2.7-6.5,4-9.7c0.3-0.6,0.6-0.9,1.3-0.9c1.7,0.1,3.4,0,5.1,0
			c1.1,0,1.1,0,1.1,1.2v0.1c0.1,0.6-0.1,1-0.8,0.9c-0.5,0-0.9,0.1-1.4,0c-0.6,0-0.7,0.2-0.7,0.8c0,0.5,0,1.1,0,1.6
			c0,4.6,0,9.1,0,13.7c0,0.4,0,0.8,0,1.1c0,0.4,0.2,0.6,0.6,0.6c0.5,0,1.1,0,1.6,0s0.8,0.2,0.7,0.8c0,0.2,0,0.4,0,0.6
			c0,0.5-0.2,0.6-0.7,0.6s-1,0-1.5,0c-2,0-3.9,0-5.9,0c-0.8,0-0.8-0.1-0.9-1c0-0.9,0.1-1,0.8-1c0.6-0.1,1.5,0.3,1.9-0.3
			c0.3-0.5,0.1-1.2,0.1-1.8c0.1-4.5,0.2-8.9,0.3-13.4c0-0.2,0-0.5,0-0.7C792.7,85,792.6,84.9,792.5,84.9z"/>
		<path class="st8" d="M913.3,64.7c-0.1-4.5-0.1-8.9-0.2-13.4c0-0.6-0.2-0.8-0.8-0.8c-0.9,0-1.8-0.1-2.8-0.1c-0.6,0-0.8-0.3-0.8-0.8
			c0-1.1,0-1.2,1-1.2c2.5,0,5,0,7.5,0c0.3,0,0.6-0.1,0.7,0.3c0.1,0.5,0.2,1.1-0.1,1.6c-0.1,0.2-0.5,0.1-0.7,0.1
			c-1.8,0.1-1.8,0.1-1.8,2c0,5.9,0,11.8,0,17.7c0,0.2,0,0.4,0,0.6c-1.1,0.4-1.9,0-2.6-0.9c-3.9-5-7.9-9.9-11.9-14.9
			c-0.3-0.3-0.6-0.7-1.1-0.9c0,0.6,0,1.3,0,1.9c0,3.8,0,7.6,0,11.4c0,0.9,0,0.9,0.9,0.9s1.8,0.1,2.8,0.1c0.5,0,0.8,0.2,0.7,0.8
			c0,0.1,0,0.3,0,0.4c0,0.9,0,0.9-0.8,0.9c-2,0-3.9,0-5.9,0c-0.6,0-1.2,0-1.8,0.1c-0.6,0-0.8-0.2-0.8-0.8c0-1.1,0-1.2,1.1-1.3
			c1.4-0.1,1.4-0.1,1.4-1.5c0.1-4.9,0.1-9.8,0.2-14.7c0-0.3,0-0.6,0-0.9c0-0.4-0.2-0.6-0.6-0.6c-0.7,0-1.3-0.1-2-0.2
			c-0.4,0-0.6-0.2-0.6-0.6c0-0.3,0-0.6,0-0.9c0-0.4,0.2-0.5,0.5-0.5c1.5,0,2.9,0,4.4,0c0.6,0,0.8,0.5,1,0.8
			c3.8,4.6,7.5,9.2,11.2,13.8c0.5,0.6,0.9,1.1,1.4,1.7C913.2,64.8,913.3,64.7,913.3,64.7z"/>
		<path class="st8" d="M804.5,68.4c-1.7-2.6-3.2-4.9-4.9-7.4c-1.6,2.4-3,4.7-4.6,7.2c0.6,0,1,0.1,1.4,0.1c1,0.1,1,0.1,1,1s0,1-0.9,1
			c-2.1,0-4.3,0-6.4,0c-0.7,0-0.8-0.1-0.8-1.1c0-0.5,0-1.1,0.8-0.9c1.7,0.3,2.5-0.6,3.4-1.9c1.4-2.2,3-4.3,4.5-6.5
			c0.4-0.5,0.4-0.9,0.1-1.4c-1.7-2.5-3.5-5-5.1-7.6c-0.5-0.8-1.2-0.6-1.9-0.7c-0.6,0-0.8-0.2-0.8-0.8c0-1.1,0-1.2,1.1-1.2
			c2.1,0,4.3,0,6.4,0c0.8,0,0.8,0.1,0.9,1.1c0.1,0.7-0.2,0.9-0.9,0.9c-0.2,0-0.5,0-0.8,0c0.2,1,2.4,4.7,3.6,5.9
			c1.2-1.9,2.4-3.8,3.6-5.7c-0.5-0.3-0.9-0.2-1.2-0.2s-0.7,0.1-0.7-0.3c-0.1-0.5-0.2-1.1,0.1-1.6c0-0.1,0.3-0.1,0.4-0.1
			c2.3,0,4.5,0,6.8,0c0.5,0,0.6,0.2,0.7,0.7c0.1,1.2,0,1.4-1.1,1.3c-1.6-0.1-2.6,0.5-3.4,1.9c-1.1,1.8-2.4,3.5-3.6,5.3
			c-0.3,0.5-0.4,0.8,0,1.3c2.1,3,4.3,6,6.4,9c0.3,0.4,0.6,0.7,1.1,0.6c0.2,0,0.5,0,0.8,0c0.9,0,0.9,0.1,1,0.9c0,1,0,1.1-1,1.1
			c-2.3,0-4.5,0-6.8,0c-0.3,0-0.8,0.2-0.9-0.2c-0.2-0.5-0.2-1.1,0-1.6c0.1-0.2,0.3-0.2,0.4-0.2C803.5,68.4,803.9,68.4,804.5,68.4z"
			/>
		<path class="st7" d="M891.8,114.2c0,1.5,0,3.1,0,4.6c0,0.5-0.2,0.8-0.8,0.7c-0.3,0-0.6,0-0.9,0c-0.4,0-0.6-0.2-0.7-0.6
			c0-0.5-0.1-1-0.1-1.5c-0.1-0.8-0.3-1.1-1.1-1.1c-2,0-4,0-6,0c-0.5,0-0.7,0.1-0.7,0.6c0,2-0.1,4-0.2,6c0,0.4,0.1,0.7,0.6,0.7
			c1.3,0,2.5,0,3.8,0c0.4,0,0.6-0.2,0.6-0.6c0-0.5,0.1-0.9,0.1-1.4s0.2-0.7,0.8-0.8c1.1-0.1,1.2,0,1.2,1.1c0,2.3,0,4.6,0,6.9
			c-0.1,0.1-0.2,0.2-0.2,0.2c-1.9,0.1-1.6,0.3-1.8-1.5c-0.2-1.9-0.2-1.9-2.1-1.9c-0.8,0-1.5,0.1-2.3,0.1c-0.6,0-0.7,0.3-0.7,0.8
			c0.1,2.2,0.1,4.3,0.1,6.5c0,0.6,0.2,0.8,0.8,0.8c2.2,0,4.4,0,6.5,0c1,0,1-0.1,1.2-1.1c0.1-0.6,0.1-1.3,0.1-1.9
			c0-0.6,0.3-0.8,0.8-0.8c0.3,0,0.5,0,0.8,0c0.5,0,0.7,0.2,0.7,0.7c0,1.6,0,3.3,0,4.9c0,0.5-0.2,0.6-0.7,0.6
			c-4.3-0.2-8.5-0.1-12.8-0.2c-1,0-2,0-3,0c-0.8,0-0.8-0.4-0.8-1c0-1,0-1,0.8-1.1c0.5,0,1-0.1,1.5,0c0.5,0,0.7-0.2,0.7-0.7
			c0-1.5,0.1-3,0.1-4.5c0-3.8,0-7.6,0-11.4c0-1.3,0-1.3-1.3-1.3c-0.2,0-0.4,0-0.6,0c-1,0-1,0-1.1-1c0-0.9,0-1,1-1
			c5,0,10,0.1,15.1-0.1C891.5,114.1,891.6,114.1,891.8,114.2z"/>
		<path class="st7" d="M883.5,70.3c-2.4-0.1-4.8-0.1-7.2,0c-0.1,0-0.2,0-0.3,0c-1.1,0-1.5-0.7-1.2-1.7c0.1-0.2,0.3-0.3,0.5-0.3
			c0.6,0,1.2-0.1,1.8-0.1s0.8-0.3,0.8-0.8c0-1.6,0.1-3.3,0.1-4.9c0-3.6,0-7.1,0-10.7c0-0.3,0-0.7,0-1s-0.2-0.5-0.6-0.5
			c-0.6,0-1.2,0-1.8-0.1c-0.6,0-0.7-0.3-0.7-1.2c0-0.5,0.1-0.8,0.8-0.8c3.9,0,7.8,0,11.7,0c1.1,0,2.3,0,3.4-0.1c0.4,0,0.7,0,0.7,0.5
			c0,1.4,0.1,2.8,0.1,4.3c0,0.5-0.1,0.7-0.6,0.7c-0.1,0-0.2,0-0.3,0c-1.4,0.1-1.4,0-1.5-1.3c-0.1-1.8-0.2-1.8-1.9-1.8
			s-3.4,0-5.1-0.1c-0.5,0-0.8,0.1-0.8,0.7c0,2-0.1,3.9-0.2,5.9c0,0.7,0.2,0.9,0.9,0.9c1.1,0,2.2,0,3.3,0c0.7,0,0.9-0.3,0.9-0.9
			c0-0.2,0-0.5,0.1-0.8c0.1-1.2,0.2-1.2,1.4-1.1c0.4,0,0.6,0.1,0.6,0.6c0,2.3,0,4.7,0,7c0,0.4-0.1,0.6-0.6,0.6
			c-1.2,0.1-1.3,0-1.4-1.1c0-0.2,0-0.3,0-0.5c-0.1-1.8-0.1-1.8-1.9-1.8c-0.8,0-1.6,0-2.4,0c-0.5,0-0.8,0.1-0.8,0.7
			c0.1,2.3,0.1,4.5,0.1,6.8c0,0.5,0.3,0.6,0.7,0.6c2.2,0,4.4,0,6.7,0c1,0,1-0.1,1.1-1.1c0.1-0.6,0.2-1.2,0.1-1.7
			c0-0.7,0.3-0.9,0.9-0.8c0.3,0,0.5,0,0.8,0c0.5,0,0.6,0.2,0.6,0.7c0,1.6-0.1,3.2,0,4.8c0,0.6-0.3,0.7-0.8,0.6
			C888.8,70.2,886.1,70.3,883.5,70.3z"/>
		<path class="st6" d="M804.8,136.2c-3,0-5.6,0-8.1,0c-0.3,0-0.8,0.2-0.9-0.2c-0.2-0.5-0.2-1.1,0-1.6c0.1-0.2,0.4-0.2,0.6-0.2
			c0.5,0,1.1,0,1.6,0s0.7-0.2,0.7-0.8c0-1.6,0.1-3.2,0.1-4.8c0-3.7,0-7.4,0-11c0-0.3,0-0.5,0-0.8c0-0.5-0.2-0.7-0.7-0.7
			c-0.4,0-0.8,0-1.3-0.1c-0.4,0-0.8,0.2-1-0.3s-0.2-1,0-1.5c0.1-0.3,0.4-0.2,0.7-0.2c1,0,1.9,0,2.9,0c4,0,8,0.1,11.9-0.1
			c1,0,1,0,1,0.9c0,1.2,0,2.4,0.1,3.6c0,0.6-0.2,0.9-0.8,0.9c-0.2,0-0.4,0-0.6,0c-0.5,0-0.9-0.2-0.9-0.8c0-0.5-0.1-1.1-0.2-1.6
			c-0.1-0.5-0.4-0.8-0.8-0.8c-2.1,0-4.3,0-6.4,0c-0.4,0-0.5,0.3-0.5,0.6c0,2.1-0.1,4.2-0.1,6.3c0,0.4,0.2,0.5,0.5,0.5
			c1.3,0,2.5,0,3.8,0c0.3,0,0.5-0.2,0.6-0.5c0.1-0.5,0.1-1,0.2-1.5c0.1-0.7,0.3-0.8,1.3-0.7c0.6,0,0.7,0.3,0.7,0.9
			c0,2.2,0,4.4,0,6.5c0,0.6-0.1,0.8-0.7,0.8c-1.1,0-1.2,0-1.2-0.7c-0.1-0.7-0.1-1.3-0.2-2c0-0.4-0.2-0.6-0.6-0.6
			c-1.2-0.1-2.4-0.1-3.6,0c-0.5,0-0.7,0.2-0.7,0.7c0,2.3,0,4.5,0,6.8c0,0.5,0.2,0.7,0.7,0.6c2.3,0,4.5,0,6.8,0c0.9,0,1-0.2,1-1.1
			c0.1-0.6,0.1-1.3,0.1-1.9c0-0.6,0.3-0.9,0.9-0.8c0.2,0,0.3,0,0.5,0c0.9,0,1,0,1,1c0,1.5-0.1,3-0.1,4.5c0,0.5-0.2,0.7-0.7,0.6
			C809.6,136.1,807,136.3,804.8,136.2z"/>
		<path class="st7" d="M844.5,70.3c-2.4-0.1-4.8-0.1-7.3,0c-0.2,0-0.5,0-0.8,0c-0.4,0-0.6-0.2-0.6-0.6c0-0.2,0-0.4,0-0.6
			c0-0.5,0.1-0.8,0.7-0.8c0.5,0,1.1-0.1,1.6-0.1s0.7-0.3,0.7-0.8c0-1.5,0.1-3,0.1-4.5c0-3.8,0-7.6,0-11.4c0-0.2,0-0.4,0-0.6
			c0-0.4-0.2-0.6-0.6-0.6c-0.5,0-1.1,0-1.6-0.1c-0.7,0-0.7-0.2-0.7-1.2c0-0.6,0.2-0.8,0.8-0.8c1.3,0,2.7,0,4,0
			c3.7-0.1,7.4,0.2,11-0.1c0.5,0,0.7,0.1,0.7,0.6c0,1.4,0,2.8,0,4.1c0,0.6-0.2,0.8-0.7,0.7c-0.3,0-0.6,0-0.9,0
			c-0.5,0-0.7-0.2-0.7-0.7s-0.1-1.1-0.2-1.6c-0.1-0.6-0.4-0.8-0.9-0.8c-0.4,0-0.8,0-1.3,0c-1.6,0-3.2,0-4.8-0.1
			c-0.6,0-0.8,0.2-0.8,0.8c0,2-0.1,4-0.1,6c0,0.5,0.2,0.6,0.7,0.6c1.2,0,2.3,0,3.5,0c0.5,0,0.7-0.2,0.7-0.6c0-0.4,0.1-0.7,0.1-1.1
			c0.1-1,0.1-1,1.1-1c0.8,0,0.9,0,0.9,0.8c0,2.2,0,4.3,0,6.5c0,0.6-0.1,0.9-0.8,0.9c-1,0-1.1,0-1.2-0.8c-0.1-0.7-0.1-1.3-0.2-2
			c0-0.4-0.2-0.6-0.6-0.6c-1.2,0-2.4,0-3.6,0c-0.5,0-0.6,0.2-0.6,0.7c0,2.3,0,4.5,0,6.8c0,0.5,0.2,0.7,0.7,0.6c2.3,0,4.5,0,6.8,0
			c0.9,0,1-0.1,1.1-1c0-0.6,0.1-1.3,0.1-1.9s0.3-0.8,0.9-0.8c0.2,0,0.3,0,0.5,0c0.9,0,1,0,1,1c0,1.5-0.1,2.9-0.1,4.4
			c0,0.5-0.1,0.8-0.7,0.7C849.8,70.2,847.2,70.3,844.5,70.3z"/>
		<path class="st7" d="M778.9,70.3c-2.4-0.1-4.9-0.1-7.3,0c-0.1,0-0.2,0-0.3,0c-1,0-1.6-0.7-1.1-1.7c0.1-0.2,0.3-0.3,0.5-0.3
			c0.6,0,1.2-0.1,1.8-0.1c0.5,0,0.7-0.2,0.7-0.7c0-1.6,0.1-3.2,0.1-4.8c0-3.7,0-7.4,0-11c0-0.2,0-0.4,0-0.6c0-0.5-0.2-0.8-0.7-0.8
			c-0.4,0-0.8,0-1.1,0c-1.1,0-1.5-0.7-1.1-1.7c0.1-0.2,0.2-0.3,0.3-0.3c0.3,0,0.7,0,1,0c3.8,0,7.6,0,11.4,0c1,0,2,0,3-0.1
			c0.4,0,0.6,0,0.7,0.5c0,1.4,0.1,2.8,0.1,4.3c0,0.5-0.2,0.7-0.6,0.7c-0.1,0-0.2,0-0.3,0c-1.3,0.1-1.4,0-1.5-1.3
			c-0.1-1.7-0.1-1.8-2-1.8c-1.6,0-3.3,0-4.9,0c-0.9,0-0.9,0-0.9,0.9c-0.1,1.9-0.1,3.8-0.2,5.6c0,0.6,0.2,0.9,0.9,0.9
			c1.1,0,2.3,0,3.4,0c0.5,0,0.7-0.2,0.7-0.6c0-0.5,0.1-0.9,0.1-1.4c0-0.6,0.3-0.8,0.9-0.8c1.1,0,1.1,0,1.1,1.1c0,2.1,0,4.2,0,6.3
			c0,0.5,0,0.9-0.7,0.9c-1.1,0-1.1,0-1.2-0.8c-0.1-0.7-0.1-1.3-0.2-2c0-0.5-0.2-0.7-0.7-0.7c-1.2,0-2.3,0-3.5,0
			c-0.5,0-0.8,0.2-0.8,0.7c0,2.3,0.1,4.5,0.1,6.8c0,0.5,0.3,0.6,0.7,0.6c2.2,0,4.4,0,6.7,0c1,0,1-0.1,1.1-1.1c0.1-0.5,0.1-1,0.1-1.5
			c0.1-1.1,0.1-1.1,1.2-1.1c1.1,0,1.1,0,1.1,1.1c0,1.5,0,2.9,0,4.4c0,0.5-0.2,0.7-0.7,0.6C784.2,70.2,781.5,70.3,778.9,70.3z"/>
		<path class="st8" d="M956.9,116.1c-0.6,0.2-1.3,0.2-1.9,0.2c-0.7,0-0.8,0.3-0.8,0.9c0,3.8,0,7.6,0,11.4c0,1.8-0.4,3.6-1.6,5
			c-0.5,0.7-1.1,1.2-1.9,1.6c-3.5,1.6-7,1.7-10.4,0.2c-2.5-1.1-3.3-3.3-3.3-5.9c-0.1-3.9,0-7.9,0-11.8c0-1.6,0.1-1.3-1.4-1.4
			c-0.1,0-0.2,0-0.3,0c-0.4-0.1-0.8,0.1-1-0.3c-0.2-0.5-0.1-1,0-1.5c0.1-0.3,0.3-0.2,0.5-0.2c0.5,0,1,0,1.5,0c2,0.1,4.1-0.1,6.1,0
			c0.3,0,0.8-0.2,1,0.3c0.1,0.5,0.2,1,0,1.5c-0.1,0.2-0.3,0.2-0.5,0.2c-0.6,0-1.2,0.1-1.8,0.1c-0.9,0-0.9,0.1-0.9,0.9
			c0,3.1,0,6.1,0,9.2c0,0.8,0,1.7,0,2.5c0,1,0.3,1.9,0.7,2.8c0.5,1.1,1.4,1.9,2.6,2.2c1.5,0.4,3,0.5,4.5,0.1
			c2.2-0.6,3.2-2.2,3.6-4.3c0.1-0.6,0.1-1.2,0.1-1.7c0-3.6,0-7.2,0-10.8c0-1,0-1-0.9-1c-0.5,0-1.1-0.1-1.6-0.1
			c-0.7-0.1-0.8-0.3-0.7-1.1c0-0.5,0.1-0.9,0.7-0.9c0.6,0,1.2,0,1.8,0c1.6,0.2,3.3-0.1,4.9,0c1.3,0,1.3,0,1.3,1.3
			C957,115.6,956.9,115.8,956.9,116.1z"/>
		<path class="st7" d="M899.8,133.8c0.4,0.3,0.7,0.2,1,0.2c2.7,0,5.4,0,8,0c0.2,0,0.4,0,0.6,0c0.8-0.1,1.1-0.3,1.2-1.1
			c0.1-0.5,0.1-1.1,0.1-1.6c0.1-0.9,0.1-0.9,1.1-1c0.2,0,0.3,0,0.5,0c0.5,0,0.8,0.2,0.8,0.7c0,1.8,0,3.5,0,5.2
			c-0.4,0.3-0.7,0.2-1,0.2c-5.2-0.2-10.5,0-15.7-0.1c-1.2,0-1.6-0.6-1-1.7c0.2-0.3,0.4-0.6,0.6-0.8c3.7-5.3,7.5-10.7,11.2-16
			c0.2-0.3,0.5-0.5,0.5-0.9c-0.2-0.3-0.5-0.2-0.8-0.2c-2.4,0-4.8,0-7.3,0c-1.2,0-1.4,0.1-1.4,1.3c0,0.5-0.1,1.1-0.1,1.6
			s-0.2,0.8-0.8,0.7c-0.3,0-0.6,0-0.9,0c-0.4,0-0.6-0.2-0.6-0.6c0-1.7,0-3.4,0.1-5.1c0-0.3,0.2-0.4,0.5-0.4c0.6,0,1.2,0.1,1.8,0.1
			c4.3,0,8.6,0,12.9,0.1c1.2,0,1.5,0.6,1,1.6c-0.2,0.3-0.4,0.6-0.6,0.8c-3.7,5.3-7.4,10.7-11,16C900.2,133.1,900,133.4,899.8,133.8z
			"/>
		<path class="st8" d="M939.1,51.5c0,0.7,0,1.4,0,2.1c0,0.6-0.2,0.8-0.8,0.7c-0.2,0-0.5,0-0.8,0c-0.5,0-0.7-0.1-0.7-0.6
			c0-0.6-0.2-1.2-0.2-1.9s-0.3-1.1-1-1.2c-2.6-0.5-5.2-0.6-7.7,0.6c-1.9,0.9-3,2.4-3.6,4.3c-0.7,2.4-0.7,4.9,0,7.3
			c1,3.3,3.6,5.3,7,5.6c1.3,0.1,2.6,0,3.9-0.3c0.9-0.2,1.4-0.6,1.5-1.6c0.1-0.8,0.3-1.6,0.3-2.4c0-0.5,0.3-0.8,0.8-0.7
			c0.2,0,0.4,0,0.6,0c1,0,1,0,0.9,1c-0.1,1.6-0.2,3.2-0.3,4.8c0,0.4-0.1,0.6-0.5,0.6c-1.8,0-3.6,0.6-5.5,0.8c-2.4,0.2-4.8-0.1-7-1.1
			c-3.6-1.7-5.4-4.6-5.8-8.5c-0.2-1.5-0.1-3.1,0.3-4.6c1.2-4.8,5-8,9.9-8.4c2-0.2,3.9,0.1,5.9,0.4c0.5,0.1,1.1,0.2,1.6,0.2
			c1,0.1,1,0.1,1,1.1C939.1,50.3,939.1,50.9,939.1,51.5L939.1,51.5z"/>
		<path class="st8" d="M832.2,69.8c-1.9-0.1-3.6,0.4-5.3,0.7c-2.1,0.3-4.2,0.1-6.2-0.5c-4.1-1.2-6.8-4.7-7.2-8.9
			c-0.1-1.7-0.1-3.3,0.4-5c1.2-4.3,4-6.8,8.3-7.8c2.5-0.6,5-0.3,7.5,0.1c0.3,0.1,0.7,0.1,1,0.2c1.5,0.2,1.5,0.2,1.5,1.7
			c0,1,0,2.1,0,3.1c0,0.6-0.2,0.9-0.8,0.9c-1.2,0-1.2,0-1.4-1.2c0-0.3-0.1-0.7-0.1-1c-0.1-1.2-0.2-1.4-1.5-1.6
			c-2.1-0.4-4.2-0.4-6.2,0.2c-2.2,0.6-3.7,2.1-4.5,4.3c-1,2.9-1,5.8,0.1,8.7c1.2,3,3.6,4.4,6.7,4.7c1.3,0.1,2.5,0,3.7-0.3
			c1.1-0.2,1.4-0.5,1.5-1.7c0.1-0.7,0.2-1.5,0.3-2.2c0.1-0.6,0.3-0.8,0.9-0.8c0.3,0,0.6,0,0.9,0c0.5,0,0.7,0.2,0.6,0.7
			C832.5,66,832.4,67.9,832.2,69.8z"/>
		<path class="st8" d="M929.6,134.1c0.1,2.1,0.1,2-1.7,2c-2.9,0-5.8,0-8.7,0c-0.3,0-0.7,0.1-0.8-0.4s-0.2-1,0.1-1.5
			c0.1-0.2,0.4-0.2,0.6-0.2c0.7,0,1.4,0,2.1-0.1c1-0.1,1-0.1,1.1-1.1c0.1-1.4,0.1-2.8,0.1-4.3c0-3.7,0-7.4,0-11c0-0.3,0-0.6,0-0.9
			s-0.2-0.5-0.5-0.5c-1.1,0-2.3,0-3.4,0c-0.6,0-0.8,0.3-0.8,0.9c0,0.7-0.1,1.3-0.1,2c-0.1,1.2-0.1,1.2-1.3,1.2h-0.1
			c-0.6,0.1-0.8-0.1-0.8-0.8c0-1.7,0.1-3.3,0-5c0-0.5,0.2-0.7,0.6-0.7c0.7,0,1.4,0.1,2.1,0.1c4.6,0,9.3,0.1,13.9-0.1
			c0.9,0,0.9,0,0.9,0.8c0,1.5,0.1,3.1,0.1,4.6c0,0.9,0,0.9-0.9,0.9c-0.1,0-0.2,0-0.3,0c-1,0-1,0-1-0.9c-0.1-0.8-0.1-1.5-0.2-2.3
			c0-0.7-0.4-1-1-1c-1,0-2,0-3,0c-0.6,0-0.8,0.2-0.8,0.8c0,4.3-0.2,8.5-0.1,12.8c0,1,0,2.1,0.1,3.1c0,1,0,1,1.1,1.1
			C927.8,134.2,928.7,134.1,929.6,134.1z"/>
		<path class="st7" d="M864.1,70.2c-2.5,0-4.9,0-7.4,0c-0.9,0-0.9,0-0.9-0.8c-0.1-1.1,0-1.2,0.8-1.3c0.1,0,0.2,0,0.3,0
			c1.9-0.1,1.9-0.1,2-1.9c0.2-4.9,0.1-9.8,0.1-14.7c0-0.2,0-0.4,0-0.6c0-0.4-0.2-0.7-0.7-0.7s-1-0.1-1.5-0.1c-0.7,0-0.8-0.3-0.9-0.9
			c0-1.2,0.2-1.2,1-1.1c2.5,0.1,5,0,7.5,0c0.6,0,0.9,0.1,0.9,0.8c0,1.1,0,1.1-0.9,1.2c-0.1,0-0.3,0-0.4,0c-1.8,0.1-1.8,0.1-1.8,1.9
			c-0.1,4.9-0.2,9.9,0,14.8c0,1,0,1,1,1c1.8,0,3.6,0,5.4,0c1.4,0,1.4,0,1.5-1.4c0.1-0.7,0.2-1.4,0.2-2.1c0-0.6,0.3-0.8,0.8-0.8
			c0.3,0,0.5,0,0.8,0c0.4,0,0.6,0.2,0.6,0.6c0,1.8,0,3.7-0.1,5.5c0,0.6-0.5,0.5-0.8,0.5c-2.3,0-4.7,0-7,0
			C864.5,70.2,864.3,70.2,864.1,70.2L864.1,70.2z"/>
		<path class="st8" d="M823.5,161.4c0.8,0.3,1.5,0.6,2.2,1c3.3,1.8,4,6.1,1.3,8.8c-2,2-4.5,2.4-7.2,1.8c-1-0.2-2-0.7-2.8-1.3
			c-0.5-0.3-0.6-0.6-0.2-1.1c0.6-0.9,0.6-0.9,1.5-0.3c1.2,0.7,2.5,1,4,0.9c1.7-0.2,2.9-1.3,3.3-3c0.4-1.8-0.3-3.2-1.9-4.1
			c-1.1-0.6-2.3-0.9-3.4-1.1c-0.5-0.1-0.6-0.3-0.6-0.8c0-0.4,0.1-0.7,0.6-0.8c1.3-0.1,2.3-0.7,3.2-1.6c1-1,1.4-2.2,1.2-3.5
			c-0.1-1.3-0.8-2-2.1-2.3c-1.3-0.2-2.5-0.1-3.6,0.7c-0.3,0.2-0.6,0.4-0.8,0.5c-0.3-0.1-0.4-0.4-0.5-0.6c-0.4-0.5-0.2-0.8,0.2-1.1
			c2-1.5,4.1-2.1,6.6-1.5c2.2,0.5,3.4,2.1,3.3,4.4c-0.1,2.1-1.2,3.7-3.1,4.6c-0.2,0.1-0.3,0.1-0.5,0.2
			C823.7,161.3,823.6,161.3,823.5,161.4z"/>
		<path class="st8" d="M849.8,103.3c-1.3,0-2.5,0-3.8,0c-0.8,0-0.8-0.4-0.8-0.9c0-0.9,0-1,0.8-1.1c0.5,0,0.9-0.1,1.4,0
			c0.6,0,0.9-0.2,0.9-0.8c0-1.4,0-2.8,0-4.3c0-3.8,0-7.7,0-11.5c0-1.2,0-1.2-1.3-1.3c-0.3,0-0.5,0-0.8,0c-1-0.1-1-0.1-1-1
			c0-1,0-1,1-1c2.5,0,5,0,7.5,0c0.3,0,0.7-0.1,0.9,0.3c0.1,0.5,0.2,1,0,1.5c0,0.1-0.2,0.2-0.3,0.2c-0.2,0-0.5,0-0.8,0.1
			c-1.9,0.1-1.9,0.1-2,2.1c-0.1,4.8-0.1,9.6-0.1,14.4c0,0.1,0,0.3,0,0.4c0,1,0,1,1,1.1c0.4,0,0.8,0.1,1.1,0c0.6-0.1,0.9,0.2,0.9,0.9
			c0,1.1,0,1.1-1.1,1.1C852.3,103.3,851,103.3,849.8,103.3L849.8,103.3z"/>
		<path class="st6" d="M947.4,70.4c-1.3,0-2.6,0-3.9,0c-0.7,0-0.8-0.3-0.8-0.9c0-1,0-1,0.7-1.1h0.1c0.7-0.1,1.5,0.2,1.9-0.2
			c0.5-0.5,0.2-1.4,0.3-2.2c0-4.8,0-9.6,0-14.4c0-0.2,0-0.4,0-0.6c0-0.4-0.2-0.6-0.6-0.6c-0.5,0-1,0-1.5,0c-0.9,0-0.9-0.1-0.9-1
			c0-1,0-1,0.9-1c2.6,0,5.1,0,7.7,0c0.8,0,0.9,0.1,0.9,1s0,1-0.8,1c-0.5,0-0.9,0.1-1.4,0c-0.7,0-0.9,0.2-0.9,0.9
			c0,2-0.1,4.1-0.2,6.1c0,3.3,0,6.5,0,9.8c0,1.2,0,1.2,1.2,1.2c0.3,0,0.6,0,0.9,0c1,0,1,0.1,1,1c0,1,0,1-1.1,1
			C949.8,70.4,948.6,70.4,947.4,70.4L947.4,70.4z"/>
		<path class="st6" d="M844.7,164.9c2.3,0,4.4,0,6.5,0c0.8,0,1.6,0,2.4,0c0.4,0,0.6,0.2,0.5,0.6c0,0.3-0.1,0.6-0.2,0.9
			c-0.3,1-0.3,1-1.4,1c-3.3,0-6.6,0-9.9,0c-0.4,0-1,0.2-1.1-0.3c-0.1-0.6-0.3-1.2,0.3-1.7c0.6-0.4,1.1-1,1.6-1.4
			c1.7-1.6,3.3-3.2,4.6-5.1c0.6-0.8,1-1.7,0.9-2.8c-0.1-1.4-0.7-2-2.1-2.1c-1.5-0.1-2.8,0.4-4,1.2c-0.9-1-0.9-1.1,0-1.7
			c1.7-1.2,3.7-1.8,5.8-1.4c2.6,0.5,3.9,2.8,3.1,5.3c-0.3,0.8-0.7,1.5-1.2,2.2c-1.3,1.7-2.8,3.1-4.5,4.3
			C845.7,164.1,845.2,164.5,844.7,164.9z"/>
		<path class="st6" d="M875,155.1c-0.9-1.1-0.9-1.1,0.1-1.8c1.7-1.2,3.6-1.7,5.7-1.3c2.6,0.5,4,2.9,3.1,5.4c-0.2,0.7-0.6,1.3-1,1.9
			c-1.1,1.5-2.3,2.7-3.8,3.8c-0.7,0.6-1.5,1.1-2.2,1.7c0.2,0.5,0.5,0.3,0.8,0.3c2.5,0,5-0.1,7.5-0.2c1,0,1.2,0.1,0.9,1.2
			c-0.3,1.2-0.4,1.4-1.6,1.4c-3.3,0-6.5,0-9.8,0c-0.3,0-0.9,0.2-1-0.2c-0.1-0.5-0.3-1.1,0.2-1.6c0.4-0.4,0.8-0.8,1.2-1.1
			c1.6-1.4,3.1-2.9,4.5-4.6c0.4-0.6,0.8-1.2,1.2-1.8c0.5-0.7,0.5-1.6,0.4-2.4c-0.1-1-0.7-1.6-1.7-1.7
			C877.8,153.7,876.4,154.2,875,155.1z"/>
		<path class="st8" d="M772.7,164.9c1.7,0,3.3,0,4.9,0c1.3,0,2.5,0,3.8-0.1c0.5,0,0.8,0.1,0.7,0.7c-0.1,0.3-0.1,0.6-0.2,0.9
			c-0.3,0.9-0.3,1-1.3,1c-3.3,0-6.6,0-9.9,0c-0.4,0-0.8,0.2-1-0.2c-0.2-0.3,0-1.4,0.3-1.7c0.6-0.6,1.2-1.1,1.8-1.7
			c1.5-1.3,2.8-2.7,4-4.3c0.3-0.4,0.6-0.9,0.9-1.4c0.5-0.8,0.5-1.7,0.4-2.6c-0.2-1-0.7-1.5-1.7-1.6c-1.4-0.2-2.7,0.1-3.9,0.8
			c-0.4,0.2-0.7,0.4-1-0.1c-0.4-0.5-0.2-0.8,0.2-1.1c1.8-1.4,3.8-2,6.1-1.5c2.5,0.5,3.8,2.8,3,5.3c-0.3,0.9-0.8,1.7-1.4,2.5
			c-1.3,1.7-2.9,3-4.6,4.3C773.4,164.3,773,164.5,772.7,164.9z"/>
		<path class="st7" d="M887.5,154.8c0.1-2.6,0.1-2.6,2.6-2.6c3.1,0,6.1,0,9.2,0c0.4,0,0.8-0.1,1.2,0.1c0.2,0.2,0.1,0.5,0,0.7
			c-2.4,6.7-5.2,13.1-8.6,19.3c-0.4,0.8-0.8,0.9-1.9,0.4c-1-0.4-1.1-0.6-0.5-1.5c2.1-3.4,4.1-6.9,5.9-10.5c0.8-1.6,1.6-3.3,2.2-5.1
			c0.4-1,0.3-1-0.7-1c-2.9,0.1-5.8,0.1-8.6,0.1C888,154.8,887.8,154.8,887.5,154.8z"/>
		<path class="st8" d="M804.9,165c2.6-0.1,5.2-0.1,7.8-0.2c0.3,0,0.7,0,1,0s0.4,0.2,0.4,0.5c0,0.6-0.2,1.1-0.4,1.7
			c-0.2,0.5-0.6,0.4-1,0.4c-2.2,0-4.4,0-6.5,0c-1.2,0-2.3,0-3.5,0c-0.4,0-0.9,0.2-1-0.2c-0.2-0.5-0.2-1.1,0.1-1.6
			c0.2-0.3,0.5-0.5,0.8-0.8c1.7-1.5,3.4-3.1,4.8-4.9c0.4-0.5,0.8-1.1,1.2-1.6c0.4-0.6,0.5-1.2,0.5-1.9c0-1.6-0.7-2.4-2.4-2.4
			c-1.2,0-2.2,0.2-3.2,0.8c-0.4,0.2-0.7,0.4-1-0.1s-0.2-0.8,0.2-1.1c1.8-1.3,3.8-2,6-1.5c2.7,0.5,4,2.9,3.1,5.5
			c-0.3,0.8-0.8,1.6-1.4,2.2c-1.3,1.7-2.9,3-4.6,4.2c-0.4,0.3-0.7,0.5-1,0.8C804.9,164.9,804.9,165,804.9,165z"/>
		<path class="st6" d="M835.9,158.5c0.9,0,1.8,0,2.8,0c0.4,0,0.6,0.2,0.5,0.6c-0.1,1.1-0.3,1.4-1.4,1.4c-1.6,0-3.3,0-4.9,0
			c-0.7,0-0.8-0.3-0.7-0.8c0.1-1.1,0.2-1.1,1.3-1.2C834.3,158.4,835.1,158.4,835.9,158.5C835.9,158.4,835.9,158.5,835.9,158.5z"/>
		<path class="st6" d="M854.6,76.3c-1.2,1.1-2.5,2.2-3.7,3.4c-0.3,0.2-0.6,0.3-0.9,0.3c-0.5,0-1.1,0-1.9,0c1-1.3,1.9-2.5,2.8-3.6
			c0.2-0.3,0.5-0.3,0.8-0.3c0.9,0,1.8,0,2.7,0C854.5,76.1,854.6,76.2,854.6,76.3z"/>
		<path class="st9" d="M750,42.1c-1.4-6.8-4.4-12.9-9.2-18c-9.3-9.8-20.7-13.8-34.1-12c-8,1-14.9,4.4-20.7,9.9
			c-10.6,10.2-14.5,22.7-11.3,36.9c3.5,15.2,13.3,24.7,28.3,28.9c1.6,0.4,3.2,0.7,4.8,1c-0.2,0.3-0.5,0.3-0.8,0.4
			c-1.1,0.3-2.1,0.6-3.1,1c-10.7,4.1-17.1,15-15.2,26.4c1.7,10.2,10.1,19.2,22.4,19.9c1.1,0.1,1.2,0.1,1.2,1.2c0,6.2,0,12.5,0,18.7
			c0,2.8,0,5.7,0,8.5c0,1,0.1,1,1,1c0.8,0,1.7,0,2.5-0.2c7.1-1.5,12.3-8.8,11.2-16.6c-0.8-5.9-5.4-11.8-13.2-12.7
			c-1.2-0.1-1.2-0.1-1.3-1.4c-0.1-4.1-0.2-8.1-0.2-12.2c0-5.3-0.1-10.5,0.1-15.8c0.1-4,0.1-7.9,0.1-11.9c0-1.7,0-3.4,0.1-5.1
			c0-0.9,0.1-0.9,1-1c2.5-0.3,5-0.4,7.4-1c11.8-2.9,20.6-9.8,26-20.7C751,59.3,751.8,50.8,750,42.1z M712.2,59.1
			c-4,0.2-8.8-3.3-8.8-8.9c0-5.1,4.6-8.9,9-8.8c4.8,0.1,8.9,4.1,8.8,8.9C721,55.9,716.3,59.4,712.2,59.1z"/>
		<path class="st7" d="M792.6,122.3c-0.6-3.9-2.9-6.4-6.7-7.5c-1.9-0.6-3.9-0.8-5.9-0.8c-2.1,0-4.2,0-6.3,0c-0.9,0-1.8,0-2.6,0
			c-0.6,0-0.8,0.2-0.7,0.7c0,0.2,0,0.4,0,0.6c0,0.5,0.2,0.7,0.7,0.7s1.1,0,1.6,0s0.7,0.2,0.7,0.7c0,0.3,0,0.5,0,0.8
			c0,3.7,0,7.4,0,11c0,1.6-0.1,3.2-0.1,4.8c0,0.5-0.2,0.8-0.7,0.8c-0.3,0-0.7,0-1,0c-1.3,0-1.3,0.1-1.3,1.1c0,0.9,0.1,1,1.3,1
			c1.7,0,3.4,0,5.1,0v0.1c0.8,0,1.6,0,2.4,0c1.7,0,3.3,0,5-0.3c3.9-0.9,6.7-3.1,8.1-6.9C792.9,126.8,793,124.6,792.6,122.3z
			 M789.1,128c-0.7,3.5-2.9,5.5-6.6,6c-1.7,0.2-3.3,0.2-5,0.1c-0.7-0.1-0.8-0.3-0.8-0.9c0-2.6,0-5.3,0-7.9l0,0c0-2.6,0-5.2,0-7.8
			c0-1,0-1,1.1-1c1.9,0,3.8,0,5.7,0.4c3.1,0.6,4.9,2.5,5.6,5.5C789.5,124.2,789.5,126.1,789.1,128z"/>
		<path class="st8" d="M843.3,101.7c-1.6-0.3-2.8-1.4-3.8-2.6c-1.6-1.9-3-4-4.3-6.2c0.5-0.2,0.9-0.4,1.2-0.6c1.4-0.8,2.4-2,2.8-3.6
			c0.8-3.7-1.2-6.7-5-7.3c-3.5-0.5-7.1-0.1-10.6-0.2c-0.7,0-0.7,0.5-0.7,0.9c0,0.5-0.1,1.1,0.7,1.1c0.5,0,1.1,0.1,1.6,0
			c0.6,0,0.7,0.2,0.7,0.7c0,0.3,0,0.7,0,1c0,3.4,0,6.9,0,10.3c0,1.6,0,3.3-0.1,4.9c0,1,0,1-1.1,1.1c-0.5,0-0.9,0-1.4,0.1
			c-0.3,0-0.5,0.1-0.6,0.5c-0.2,1.3,0,1.5,1.3,1.5c2.4,0,4.9,0,7.3,0c1.1,0,1.1,0,1.1-1.1c0-0.9,0-0.9-0.9-0.9
			c-0.6,0-1.3-0.1-1.9-0.1c-0.4,0-0.5-0.2-0.5-0.5c0-2.3,0-4.6,0-6.9c0.4-0.2,0.8-0.1,1.2-0.1c1.1-0.1,1.8,0.4,2.4,1.4
			c1.4,2.3,2.9,4.5,4.6,6.6c1.3,1.5,2.8,2.2,4.7,2.1c1.2,0,1.2-0.1,1.5-1.2C843.7,102,843.7,101.8,843.3,101.7z M832.8,91.8
			c-1,0.2-2,0.1-3,0.1c-0.6,0-0.7-0.3-0.7-0.8c0-0.6,0-1.2,0-1.8s0-1.2,0-1.8c0-0.6,0-1.1,0-1.7s0-1.1,0-1.7c0-0.5,0.2-0.7,0.7-0.7
			c1,0,2,0,3,0.2c1.8,0.4,2.8,1.4,3,3.2c0.1,0.6,0.1,1.2,0,1.7C835.6,90.5,834.7,91.4,832.8,91.8z"/>
		<path class="st7" d="M820.4,101.2c-1.2,0-1.2,0-1.6-1.1c-2-5.8-4-11.5-6-17.3c-0.6-1.8-0.1-1.5-2.2-1.6c-1,0-1.1,0-1.4,1
			c-1.4,3.5-2.8,7.1-4.2,10.6c-0.9,2.4-1.9,4.8-2.8,7.2c-0.3,0.8-0.6,1.4-1.6,1.2c-0.1,0-0.2,0-0.3,0c-0.4,0-0.6,0.1-0.6,0.6
			c0,0.2,0,0.3,0,0.5c0,0.9,0,0.9,0.9,0.9c0.8,0,1.5-0.1,2.3-0.1c1.4,0,2.8,0,4.3,0c0.5,0,0.7-0.1,0.7-0.6c0-0.2,0-0.4,0-0.6
			c0-0.5-0.2-0.7-0.7-0.7c-0.9,0-1.7-0.1-2.7-0.2c0.6-1.7,1.2-3.2,1.8-4.8c0.1-0.3,0.4-0.4,0.7-0.4c2.2,0,4.4,0,6.5-0.1
			c0.4,0,0.6,0.1,0.7,0.5c0.5,1.5,1,3.1,1.5,4.8c-1,0.1-1.7,0.1-2.4,0.2c-0.4,0-0.5,0.2-0.5,0.5s0,0.6,0,0.9c0,0.5,0.3,0.6,0.7,0.6
			c2.5-0.2,4.9-0.1,7.4-0.1c0.3,0,0.5,0,0.6-0.3C821.8,101.8,821.4,101.2,820.4,101.2z M807,94c1.1-3,2.1-5.9,3.2-8.8
			c0.1,0,0.2,0,0.3,0c1.1,2.9,1.9,5.8,3,8.8C811.3,94.3,809.3,94.1,807,94z"/>
		<path class="st7" d="M877.5,101.3c-0.2,0-0.4-0.1-0.6-0.1c-1.6-0.1-1.6-0.1-2.1-1.5c-2-5.8-4-11.7-6-17.5
			c-0.2-0.7-0.5-1.1-1.3-0.9c-0.2,0-0.4,0-0.6,0c-1.2,0-1.2,0-1.6,1.1c-2.3,6-4.7,11.9-7,17.9c-0.3,0.7-0.6,1.1-1.4,1.1
			c-0.9,0-0.9,0-0.9,1s0,1,0.9,1c2-0.1,4.1-0.1,6.1,0c1,0,1,0,1-0.9c0-1,0-1-1-1.1c-0.7-0.1-1.5-0.1-2.4-0.2
			c0.6-1.7,1.2-3.3,1.8-4.9c0.1-0.3,0.3-0.3,0.6-0.3c2.2,0,4.3,0,6.5-0.1c0.5,0,0.7,0.2,0.8,0.6c0.5,1.5,1,3,1.5,4.7
			c-0.5,0-0.7,0.1-1,0.1s-0.7,0-1,0.1c-1,0.1-1.1,0.1-1,1.3c0.1,0.8,0.1,0.8,1,0.8c2-0.1,4.1-0.1,6.1-0.1
			C877.8,103.1,877.8,103.1,877.5,101.3z M863.3,93.9c1.1-2.9,2.1-5.8,3.2-8.7c0.1,0,0.2,0,0.3,0c1,2.9,1.9,5.8,2.9,8.7
			C868.2,94.2,865.7,94.3,863.3,93.9z"/>
		<path class="st8" d="M873.8,134.5c-0.2-0.5-0.6-0.3-1-0.3c-1.5,0-1.2,0-1.6-1.2c-2-5.9-4.1-11.9-6.1-17.8
			c-0.4-1.1-0.4-1.1-1.5-1.1c-0.1,0-0.3,0-0.4,0c-1.5,0-1.2-0.2-1.7,1.1c-2.3,5.9-4.6,11.7-6.9,17.6c-0.3,0.9-0.7,1.5-1.7,1.3
			c-0.7-0.1-0.8,0.1-0.8,0.9c0,0.9,0.1,1,0.8,1c2.2,0,4.4,0,6.5,0c0.6,0,0.8-0.2,0.8-0.8c0-1.1,0-1.2-0.8-1.2
			c-0.9-0.1-1.7,0-2.7-0.3c0.6-1.6,1.2-3.1,1.7-4.6c0.1-0.4,0.4-0.5,0.8-0.5c2.1-0.1,4.3,0,6.4-0.1c0.4,0,0.6,0.1,0.7,0.5
			c0.5,1.6,1,3.1,1.5,4.7c-0.7,0.2-1.3,0.2-1.9,0.3c-1.1,0.1-1.1,0.1-1,1.2c0,0.5,0.1,0.9,0.8,0.8c2.5,0,4.9,0,7.4,0
			c0.2,0,0.5,0,0.5-0.2C873.9,135.5,873.9,134.9,873.8,134.5z M859.4,126.9c1.1-3.1,2.2-6,3.3-9.2c1.1,3.2,2.1,6.2,3.1,9.3
			C863.6,127.1,861.6,127.2,859.4,126.9z"/>
		<path class="st7" d="M974,68.2c-0.1,0-0.2,0-0.3,0c-0.6,0.1-1-0.2-1.2-0.8c-0.5-1.7-1.1-3.4-1.7-5.1c-1.5-4.4-3-8.8-4.5-13.2
			c-0.2-0.7-0.5-1-1.2-0.9c-0.2,0-0.4,0-0.6,0c-1.2,0-1.2,0-1.7,1.1c-2.3,5.9-4.7,11.9-7,17.9c-0.3,0.7-0.6,1-1.3,1c-1,0-1,0-1,1.1
			c0,0.9,0,0.9,0.9,0.9c2,0,4.1,0,6.1,0c1.1,0,1.1,0,1.1-1.1c0-0.6-0.2-0.9-0.8-0.9c-0.8,0-1.6-0.1-2.6-0.1c0.6-1.7,1.2-3.3,1.8-4.8
			c0.1-0.3,0.4-0.4,0.7-0.4c2.1-0.1,4.3-0.1,6.4-0.1c0.4,0,0.7,0.1,0.8,0.5c0.5,1.6,1,3.1,1.5,4.7c-0.2,0.1-0.2,0.1-0.3,0.1
			c-0.5,0-1.1,0.1-1.6,0.1c-1.1,0.1-1.1,0.2-1.1,1.2c0,0.8,0.1,0.9,1,0.9c1,0,2,0,3,0c1.4,0,2.8,0,4.1,0c0.5,0,0.6-0.2,0.7-0.6
			C975.2,68.3,975.1,68.2,974,68.2z M960.8,61.1c1-3.1,2.1-6,3.4-8.9c1,2.9,1.9,5.8,2.9,8.9C965,61.3,963,61.1,960.8,61.1z"/>
		<path class="st6" d="M798.6,156.6c-1-2.9-3.6-4.8-7.1-4.7c-3.4,0.1-6.2,2.3-7,5.4c-0.3,1.2-0.3,2.4-0.2,3.6c0.4,3,1.6,5.3,4.6,6.2
			s5.8,0.6,8.1-1.7c1.6-1.6,2-3.6,2-6.1C799.1,158.6,798.9,157.6,798.6,156.6z M795.6,163.1c-0.6,1.7-1.9,2.5-3.6,2.6
			c-1.7,0.1-3.1-0.5-4-2.1c-0.3-0.6-0.5-1.2-0.7-1.9c-0.2-1.4-0.3-2.7-0.1-4.1c0.4-2.4,2-3.8,4.2-3.9c2.4-0.1,4,1.2,4.5,3.7
			c0.2,0.7,0.2,1.5,0.3,2.1C796.1,160.8,796,162,795.6,163.1z"/>
		<path class="st6" d="M864.3,151.9c-3.7-0.2-7,2.1-7.8,5.7c-0.4,1.8-0.3,3.6,0.3,5.3c0.7,2.2,2.2,3.6,4.4,4.3
			c4.3,1.4,8.3-0.6,9.6-4.6c0.3-1,0.4-2,0.4-2.9C871.3,155.7,868.8,152.1,864.3,151.9z M867.6,163.2c-0.6,1.6-1.8,2.4-3.5,2.5
			s-3.2-0.4-4-2c-1.3-2.5-1.4-5.2-0.2-7.7c0.7-1.6,2.1-2.3,3.9-2.2c1.7,0,2.9,0.8,3.7,2.3c0.6,1.2,0.7,2.5,0.7,3.5
			C868.1,161,868.1,162.1,867.6,163.2z"/>
	</g>
</g>
</svg>
